<?xml version="1.0" encoding="UTF-8" standalone="no"?>
<svg width="96px" height="96px" viewBox="0 0 96 96" version="1.1" xmlns="http://www.w3.org/2000/svg" xmlns:xlink="http://www.w3.org/1999/xlink" xmlns:sketch="http://www.bohemiancoding.com/sketch/ns">
    <title>glass</title>
    <description>Created with Sketch (http://www.bohemiancoding.com/sketch)</description>
    <defs>
        <path id="path-1" d="M0,0.0113981947 L47.3608208,0.0113981947 L47.3608208,67.7559352 L0,67.7559352 L0,0.0113981947 Z"></path>
        <path id="path-3" d="M0,0.0113981947 L47.3608208,0.0113981947 L47.3608208,67.7559352 L0,67.7559352"></path>
    </defs>
    <g id="Page-1" stroke="none" stroke-width="1" fill="none" fill-rule="evenodd" sketch:type="MSPage">
        <g id="glass" sketch:type="MSArtboardGroup">
            <path d="M48,96 C74.5096693,96 96,74.5096693 96,48 C96,21.4903307 74.5096693,0 48,0 C21.4903307,0 0,21.4903307 0,48 C0,74.5096693 21.4903307,96 48,96 Z" id="Oval-70" fill="#DADDDE" sketch:type="MSShapeGroup"></path>
            <g id="Imported-Layers" sketch:type="MSLayerGroup" transform="translate(24.325559, 13.627686)">
                <path d="M20.869135,58.8389466 C20.9887961,59.1244895 20.7934763,59.477743 20.4331364,59.6282716 C20.0732035,59.7788001 19.6847798,59.6695222 19.5656614,59.3842959 L19.1123422,58.3000653 C18.9932238,58.0147938 19.1884532,57.6613141 19.5483409,57.5110117 C19.9081833,57.3604379 20.2967426,57.4694897 20.4159967,57.7549873 L20.869135,58.8389466 Z" id="Fill-1" fill="#424547" sketch:type="MSShapeGroup"></path>
                <path d="M26.8303637,58.8389466 C26.7108836,59.1244895 26.9062486,59.477743 27.2663624,59.6282716 C27.6262048,59.7788001 28.0146737,59.6695222 28.1340634,59.3842959 L28.5871565,58.3000653 C28.7064558,58.0147938 28.5112717,57.6613141 28.151384,57.5110117 C27.7912702,57.3604379 27.4027561,57.4694897 27.2834116,57.7549873 L26.8303637,58.8389466 Z" id="Fill-3" fill="#424547" sketch:type="MSShapeGroup"></path>
                <path d="M20.9383358,62.8831437 C20.9383358,62.8831437 21.1152949,61.8978331 20.915091,61.3806626 C20.7149323,60.8639897 19.912172,58.9926956 19.598774,58.3480191 C19.3906108,57.9191394 19.9363665,57.8943981 20.0841113,58.2108337 C20.2314491,58.5272241 21.2870533,60.7523145 21.4761775,61.3116854 C21.6919383,61.950708 21.4761775,62.8831437 21.4761775,62.8831437 L20.9383358,62.8831437 Z" id="Fill-5" fill="#424547" sketch:type="MSShapeGroup"></path>
                <path d="M26.76138,62.8831437 C26.76138,62.8831437 26.5841948,61.8978331 26.7846248,61.3806626 C26.9847835,60.8639897 27.7874985,58.9926956 28.1007157,58.3480191 C28.309105,57.9191394 27.7630327,57.8943981 27.6156045,58.2108337 C27.4679953,58.5272241 26.4123911,60.7523145 26.2234931,61.3116854 C26.0075514,61.950708 26.2234931,62.8831437 26.2234931,62.8831437 L26.76138,62.8831437 Z" id="Fill-7" fill="#424547" sketch:type="MSShapeGroup"></path>
                <path d="M40.9437675,13.0699933 C40.9437675,13.0699933 40.2918272,13.2565709 40.5765536,14.3007269 C40.8613253,15.344883 44.6937809,29.1779492 45.7678814,38.0959058 C46.2169948,41.8251508 46.7385561,48.3896064 44.5279467,52.1396576 C40.769974,58.5145956 32.6958365,62.7576188 23.8498715,62.7576188 C8.81458904,62.7576188 3.60661905,54.5930738 2.84736368,51.3023426 C2.65751591,50.5008958 2.49932452,48.4546032 2.53098089,46.8408993 C2.56263726,45.2271953 3.54335154,28.0142025 4.49245467,23.3945414 C5.44151259,18.7748349 6.01096542,18.2686104 6.32734821,17.6357844 C6.643731,17.0029584 12.8443995,2.63770509 12.8443995,1.43528601 C12.8443995,0.929061423 11.2151367,0.0430779391 10.8197034,0.011461518 C10.4242249,-0.020200134 4.8483627,12.8700273 3.32189263,23.1097674 C1.79546779,33.3494623 9.04467657e-06,36.0042918 9.94914423e-05,56.3016723 C9.94914423e-05,57.8303873 -0.0268536447,60.5602097 0.822622379,61.5858211 C2.29893971,63.3684173 6.13754567,64.971492 6.13754567,64.971492 L7.90908125,61.174491 C7.90908125,61.174491 5.33428795,59.5590683 4.52677922,58.6948408 C3.70005056,57.8098524 2.91058596,56.2700558 2.97394392,54.4981341 C2.97394392,54.4981341 8.02756651,63.7691181 23.8498715,63.7691181 C39.6719503,63.7691181 45.1978859,53.0319735 45.7040712,51.7240759 C46.2102566,50.4163592 47.9290164,46.2080733 46.6318742,37.9812453 C45.3348675,29.7544626 41.1652264,13.022546 41.1652264,13.022546 L40.9437675,13.0699933 Z" id="Fill-9" fill="#424547" sketch:type="MSShapeGroup"></path>
                <path d="M6.11584297,18.0169726 C6.19629537,17.8744952 6.26648206,17.7574827 6.32735273,17.6357663 C6.41345805,17.4635269 6.93556201,16.2737273 7.65000101,14.6088671 C7.65000101,14.6088671 7.86359105,14.739087 7.79688656,14.8909725 C7.73013684,15.0428127 6.43317545,17.9032168 6.37556086,18.0176963 C6.31799149,18.1321758 6.11584297,18.0169726 6.11584297,18.0169726" id="Fill-11" fill="#424547" sketch:type="MSShapeGroup"></path>
                <g id="Group-15" transform="translate(-0.000000, -0.000000)">
                    <mask id="mask-2" sketch:name="Clip 14" fill="white">
                        <use xlink:href="#path-1"></use>
                    </mask>
                    <g id="Clip-14"></g>
                    <path d="M7.73368236,61.5509932 L13.8147802,64.6340692 L12.1696892,67.7559533 L6.28581053,64.653609 L7.73368236,61.5509932 Z" id="Fill-13" fill="#424547" sketch:type="MSShapeGroup" mask="url(#mask-2)"></path>
                </g>
                <path d="M0.747026972,47.3145123 C0.747026972,47.3145123 1.86666748,46.9990718 1.92988977,48.4862196 C1.99315729,49.9734127 1.67831209,50.1852743 1.23412803,50.2366567 C0.790034409,50.2880842 0.747026972,47.3145123 0.747026972,47.3145123" id="Fill-16" fill="#424547" sketch:type="MSShapeGroup"></path>
                <g id="Group-20" transform="translate(-0.000000, -0.000000)">
                    <mask id="mask-4" sketch:name="Clip 19" fill="white">
                        <use xlink:href="#path-3"></use>
                    </mask>
                    <g id="Clip-19"></g>
                    <path d="M23.8498579,64.0857346 C19.703552,64.0857346 15.9467552,63.4721771 12.6837072,62.2621139 C9.84725142,61.2102686 7.38927012,59.7142103 5.37791494,57.8154611 C3.68330434,56.2157335 2.30828739,54.3109685 1.40155856,52.3070573 C0.624846958,50.5904982 0.19707898,48.8074949 0.19707898,47.2865596 C0.19707898,38.4950235 2.72031763,23.2111752 2.74582361,23.0578423 C2.74582361,23.0578423 2.76260149,22.9321908 3.08070276,22.9850657 C3.39880404,23.0379407 3.37031331,23.1616925 3.37031331,23.1616925 C3.34498821,23.3145278 0.83020634,38.5473557 0.83020634,47.2865596 C0.83020634,49.7614605 2.13503661,53.8833553 5.81246643,57.3549197 C8.75917683,60.136622 14.2804092,63.4525016 23.8498579,63.4525016 C31.3116708,63.4525016 36.5392678,60.7343035 39.6107495,58.4540314 C43.2273991,55.7689876 45.7989363,52.1525032 46.321583,49.0159643 C47.3363957,42.9261169 46.7841729,34.4772956 40.790718,13.0380602 C40.790718,13.0380602 40.7490221,12.9176555 41.0598876,12.8307216 C41.3707531,12.743833 41.4004197,12.8675848 41.4004197,12.8675848 C47.4253501,34.4193547 47.9748142,42.9468327 46.9460726,49.1200407 C46.6812445,50.7093199 45.9242051,52.4387698 44.7568539,54.1214961 C43.5395761,55.8760944 41.8905959,57.5500912 39.9880934,58.9624723 C37.8805933,60.5271459 35.5039689,61.7613171 32.9243819,62.630746 C30.0597972,63.5962003 27.0067666,64.0857346 23.8498579,64.0857346" id="Fill-18" fill="#424547" sketch:type="MSShapeGroup" mask="url(#mask-4)"></path>
                </g>
            </g>
        </g>
    </g>
</svg>