<?xml version="1.0" encoding="utf-8"?>
<!-- Generator: Adobe Illustrator 15.1.0, SVG Export Plug-In . SVG Version: 6.00 Build 0)  -->
<!DOCTYPE svg PUBLIC "-//W3C//DTD SVG 1.1//EN" "http://www.w3.org/Graphics/SVG/1.1/DTD/svg11.dtd">
<svg version="1.1" id="Layer_1" xmlns="http://www.w3.org/2000/svg" xmlns:xlink="http://www.w3.org/1999/xlink" x="0px" y="0px"
	 width="955px" height="154px" viewBox="0 0 955 154" enable-background="new 0 0 955 154" xml:space="preserve">
<text transform="matrix(1 0 0 1 14.9961 202.002)" display="none" enable-background="new    " font-family="'Gotham-Book'" font-size="22" letter-spacing="88">INDUSTRIES</text>
<g>
	<g>
		<path fill="#2A313B" d="M51,38H5V0h135v38H94v116H51V38z"/>
		<path fill="#2A313B" d="M159,0h43v58h54V0h43v154h-43V96h-54v58h-43V0z"/>
		<path fill="#2A313B" d="M326,0h124v37h-81v23h74v34h-74v24h82v36H326V0z"/>
		<path fill="#2A313B" d="M473,0h72.963c23.539,0,39.938,6.399,50.279,16.959c9.02,8.8,13.758,20.918,13.758,36.098v0.44
			c0,23.54-12.658,38.921-31.799,47.062L614.822,154h-49.279l-31.021-46h-0.439H516v46h-43V0z M543.982,74
			C558.502,74,567,67.358,567,56.138v-0.439C567,43.598,558.062,37,543.762,37H516v37H543.982z"/>
		<path fill="#2A313B" d="M814,0h39.959L917,81.878V0h43v154h-37.84L856,69.998V154h-42V0z"/>
	</g>
	<path fill="#F1412F" d="M755.481,0h-89.354l-44.68,77l44.68,77h89.356l44.677-77L755.481,0z M710.804,120.27
		c-23.845,0-43.176-19.33-43.176-43.176c0-23.844,19.333-43.175,43.176-43.175c23.846,0,43.178,19.331,43.178,43.175
		C753.979,100.938,734.649,120.27,710.804,120.27z"/>
</g>
</svg>
