<?xml version="1.0" encoding="utf-8"?>
<!-- Generator: Adobe Illustrator 15.1.0, SVG Export Plug-In . SVG Version: 6.00 Build 0)  -->
<!DOCTYPE svg PUBLIC "-//W3C//DTD SVG 1.1//EN" "http://www.w3.org/Graphics/SVG/1.1/DTD/svg11.dtd">
<svg version="1.1" id="Layer_1" xmlns="http://www.w3.org/2000/svg" xmlns:xlink="http://www.w3.org/1999/xlink" x="0px" y="0px"
	 width="960px" height="217px" viewBox="0 0 960 217" enable-background="new 0 0 960 217" xml:space="preserve">
<text transform="matrix(1 0 0 1 14.9961 202.0015)" display="none" font-family="'Gotham-Book'" font-size="22" letter-spacing="88">INDUSTRIES</text>
<g>
	<g>
		<path fill="#2A313B" d="M51,38H5V0h135v38H94v116H51V38z"/>
		<path fill="#2A313B" d="M159,0h43v58h54V0h43v154h-43V96h-54v58h-43V0z"/>
		<path fill="#2A313B" d="M326,0h124v37h-81v23h74v34h-74v24h82v36H326V0z"/>
		<path fill="#2A313B" d="M473,0h72.963c23.539,0,39.938,6.399,50.279,16.959c9.02,8.8,13.758,20.918,13.758,36.098v0.44
			c0,23.54-12.658,38.921-31.799,47.061L614.822,154h-49.279l-31.021-46h-0.439H516v46h-43V0z M543.982,74
			C558.502,74,567,67.358,567,56.138v-0.439C567,43.598,558.062,37,543.762,37H516v37H543.982z"/>
		<path fill="#2A313B" d="M814,0h39.959L917,81.878V0h43v154h-37.84L856,69.998V154h-42V0z"/>
	</g>
	<path fill="#F1412F" d="M755.481,0h-89.354l-44.68,77l44.68,77h89.356l44.677-77L755.481,0z M710.804,120.27
		c-23.845,0-43.176-19.331-43.176-43.176c0-23.844,19.333-43.175,43.176-43.175c23.844,0,43.176,19.331,43.176,43.175
		C753.979,100.938,734.649,120.27,710.804,120.27z"/>
	<rect y="169" fill="#2A313B" width="960" height="2"/>
	<rect y="215" fill="#2A313B" width="960" height="2"/>
	<g>
		<path fill="#2A313B" d="M17.329,186.599h1.738v15.402h-1.738V186.599z"/>
		<path fill="#2A313B" d="M111.576,186.599h1.628l9.703,12.344v-12.344h1.694v15.402h-1.386l-9.945-12.63v12.63h-1.694V186.599z"/>
		<path fill="#2A313B" d="M216.956,186.599h5.347c4.841,0,8.186,3.323,8.186,7.657v0.044c0,4.334-3.345,7.701-8.186,7.701h-5.347
			V186.599z M222.303,200.395c3.895,0,6.381-2.64,6.381-6.051V194.3c0-3.411-2.486-6.095-6.381-6.095h-3.608v12.189H222.303z"/>
		<path fill="#2A313B" d="M321.918,195.555v-8.956h1.738v8.845c0,3.323,1.76,5.193,4.709,5.193c2.838,0,4.643-1.716,4.643-5.083
			v-8.956h1.738v8.823c0,4.489-2.574,6.821-6.425,6.821C324.514,202.244,321.918,199.911,321.918,195.555z"/>
		<path fill="#2A313B" d="M425.846,199.757l1.078-1.276c1.606,1.452,3.146,2.178,5.281,2.178c2.068,0,3.433-1.1,3.433-2.618v-0.044
			c0-1.43-0.771-2.245-4.005-2.927c-3.543-0.77-5.171-1.914-5.171-4.444v-0.044c0-2.42,2.135-4.203,5.061-4.203
			c2.244,0,3.851,0.638,5.413,1.892l-1.013,1.342c-1.43-1.166-2.86-1.672-4.444-1.672c-2.002,0-3.278,1.1-3.278,2.486v0.044
			c0,1.452,0.792,2.267,4.181,2.993c3.433,0.748,5.017,2.002,5.017,4.356v0.044c0,2.641-2.2,4.357-5.259,4.357
			C429.696,202.222,427.694,201.407,425.846,199.757z"/>
		<path fill="#2A313B" d="M532.675,188.206h-5.171v-1.606h12.102v1.606h-5.171v13.796h-1.76V188.206z"/>
		<path fill="#2A313B" d="M630.86,186.599h6.622c1.893,0,3.411,0.572,4.379,1.541c0.748,0.748,1.188,1.826,1.188,3.036v0.044
			c0,2.553-1.761,4.049-4.181,4.489l4.73,6.293h-2.134l-4.467-5.985h-0.044h-4.356v5.985h-1.738V186.599z M637.329,194.455
			c2.311,0,3.96-1.188,3.96-3.168v-0.044c0-1.892-1.452-3.036-3.938-3.036h-4.752v6.249H637.329z"/>
		<path fill="#2A313B" d="M734.92,186.599h1.738v15.402h-1.738V186.599z"/>
		<path fill="#2A313B" d="M829.168,186.599h11.133v1.584h-9.395v5.259h8.404v1.584h-8.404v5.391h9.505v1.584h-11.243V186.599z"/>
		<path fill="#2A313B" d="M930.896,199.757l1.078-1.276c1.606,1.452,3.146,2.178,5.281,2.178c2.068,0,3.433-1.1,3.433-2.618v-0.044
			c0-1.43-0.771-2.245-4.005-2.927c-3.543-0.77-5.171-1.914-5.171-4.444v-0.044c0-2.42,2.135-4.203,5.061-4.203
			c2.244,0,3.851,0.638,5.413,1.892l-1.013,1.342c-1.43-1.166-2.86-1.672-4.444-1.672c-2.002,0-3.278,1.1-3.278,2.486v0.044
			c0,1.452,0.792,2.267,4.181,2.993c3.433,0.748,5.017,2.002,5.017,4.356v0.044c0,2.641-2.2,4.357-5.259,4.357
			C934.746,202.222,932.744,201.407,930.896,199.757z"/>
	</g>
</g>
</svg>
