<?xml version="1.0" encoding="UTF-8" standalone="no"?>
<svg width="96px" height="96px" viewBox="0 0 96 96" version="1.1" xmlns="http://www.w3.org/2000/svg" xmlns:xlink="http://www.w3.org/1999/xlink" xmlns:sketch="http://www.bohemiancoding.com/sketch/ns">
    <title>web</title>
    <description>Created with Sketch (http://www.bohemiancoding.com/sketch)</description>
    <defs></defs>
    <g id="Page-1" stroke="none" stroke-width="1" fill="none" fill-rule="evenodd" sketch:type="MSPage">
        <g id="web" sketch:type="MSArtboardGroup">
            <path d="M48,96 C74.5096693,96 96,74.5096693 96,48 C96,21.4903307 74.5096693,0 48,0 C21.4903307,0 0,21.4903307 0,48 C0,74.5096693 21.4903307,96 48,96 Z" id="Oval-70" fill="#DADDDE" sketch:type="MSShapeGroup"></path>
            <rect id="frame" stroke="#252429" sketch:type="MSShapeGroup" x="17" y="25" width="58" height="46" rx="2"></rect>
            <rect id="Rectangle-2" stroke="#252429" sketch:type="MSShapeGroup" x="20" y="32" width="52" height="36" rx="1"></rect>
            <path d="M21,29 C21.5522848,29 22,28.5522848 22,28 C22,27.4477152 21.5522848,27 21,27 C20.4477152,27 20,27.4477152 20,28 C20,28.5522848 20.4477152,29 21,29 Z" id="Oval-3" fill="#252429" sketch:type="MSShapeGroup"></path>
            <path d="M24,29 C24.5522848,29 25,28.5522848 25,28 C25,27.4477152 24.5522848,27 24,27 C23.4477152,27 23,27.4477152 23,28 C23,28.5522848 23.4477152,29 24,29 Z" id="Oval-3-copy" fill="#252429" sketch:type="MSShapeGroup"></path>
            <path d="M27,29 C27.5522848,29 28,28.5522848 28,28 C28,27.4477152 27.5522848,27 27,27 C26.4477152,27 26,27.4477152 26,28 C26,28.5522848 26.4477152,29 27,29 Z" id="Oval-3-copy-2" fill="#252429" sketch:type="MSShapeGroup"></path>
            <rect id="Rectangle-142" fill-opacity="0.52" fill="#252429" sketch:type="MSShapeGroup" x="30" y="27" width="42" height="2" rx="3"></rect>
        </g>
    </g>
</svg>