<?xml version="1.0" encoding="UTF-8" standalone="no"?>
<svg width="60px" height="60px" viewBox="0 0 60 60" version="1.1" xmlns="http://www.w3.org/2000/svg" xmlns:xlink="http://www.w3.org/1999/xlink" xmlns:sketch="http://www.bohemiancoding.com/sketch/ns">
    <!-- Generator: Sketch 3.2.2 (9983) - http://www.bohemiancoding.com/sketch -->
    <title>101 - Iphones (Webby)</title>
    <desc>Created with Sketch.</desc>
    <defs></defs>
    <g id="Page-1" stroke="none" stroke-width="1" fill="none" fill-rule="evenodd" sketch:type="MSPage">
        <g id="101---Iphones-(Webby)" sketch:type="MSLayerGroup" transform="translate(1.000000, 1.000000)">
            <path d="M42.038,58 L16.962,58 C15.326,58 14,56.674 14,55.038 L14,2.962 C14,1.326 15.326,0 16.962,0 L42.038,0 C43.674,0 45,1.326 45,2.962 L45,55.038 C45,56.674 43.674,58 42.038,58 L42.038,58 Z" id="Fill-680" fill="#FFFFFF" sketch:type="MSShapeGroup"></path>
            <path d="M42.038,58 L16.962,58 C15.326,58 14,56.674 14,55.038 L14,2.962 C14,1.326 15.326,0 16.962,0 L42.038,0 C43.674,0 45,1.326 45,2.962 L45,55.038 C45,56.674 43.674,58 42.038,58 L42.038,58 Z" id="Stroke-681" stroke="#0F81E0" stroke-width="2" stroke-linecap="round" stroke-linejoin="round" sketch:type="MSShapeGroup"></path>
            <path d="M14,6 L45,6 L45,49 L14,49 L14,6 Z" id="Fill-682" fill="#FFFFFF" sketch:type="MSShapeGroup"></path>
            <path d="M14,6 L45,6 L45,49 L14,49 L14,6 Z" id="Stroke-683" stroke="#0F81E0" stroke-width="2" stroke-linecap="round" stroke-linejoin="round" sketch:type="MSShapeGroup"></path>
            <path d="M29,3 L34,3 M25,3 L26,3" id="Stroke-684" stroke="#0F81E0" stroke-width="2" stroke-linecap="round" stroke-linejoin="round" sketch:type="MSShapeGroup"></path>
            <path d="M32,53.5 C32,54.881 30.881,56 29.5,56 C28.119,56 27,54.881 27,53.5 C27,52.119 28.119,51 29.5,51 C30.881,51 32,52.119 32,53.5" id="Fill-685" fill="#0F81E0" sketch:type="MSShapeGroup"></path>
            <path d="M0,16.656 L0,17.5 M0,20.031 L0,20.875 M0,23.406 L0,24.25" id="Stroke-686" stroke="#0F81E0" stroke-width="2" stroke-linecap="round" stroke-linejoin="round" sketch:type="MSShapeGroup"></path>
            <path d="M14,55.038 L14,9.062 L3.343,9.062 C1.963,9.062 0.844,10.181 0.844,11.561 L0.844,55.501 C0.844,56.881 1.963,58 3.343,58 L16.962,58 C15.326,58 14,56.674 14,55.038 L14,55.038 Z" id="Fill-687" fill="#FFFFFF" sketch:type="MSShapeGroup"></path>
            <path d="M14,55.038 L14,9.062 L3.343,9.062 C1.963,9.062 0.844,10.181 0.844,11.561 L0.844,55.501 C0.844,56.881 1.963,58 3.343,58 L16.962,58 C15.326,58 14,56.674 14,55.038 L14,55.038 Z" id="Stroke-688" stroke="#0F81E0" stroke-width="2" stroke-linecap="round" stroke-linejoin="round" sketch:type="MSShapeGroup"></path>
            <path d="M1,51 L14,51 L14,15 L1,15 L1,51 Z" id="Fill-689" fill="#C6E3F8" sketch:type="MSShapeGroup"></path>
            <path d="M1,51 L14,51 L14,15 L1,15 L1,51 Z" id="Stroke-690" stroke="#0F81E0" stroke-width="2" stroke-linecap="round" stroke-linejoin="round" sketch:type="MSShapeGroup"></path>
            <path d="M55.516,9 L45,9 L45,55.038 C45,56.674 43.674,58 42.038,58 L55.516,58 C56.888,58 58,56.88 58,55.498 L58,11.502 C58,10.12 56.888,9 55.516,9 L55.516,9 Z" id="Fill-691" fill="#FFFFFF" sketch:type="MSShapeGroup"></path>
            <path d="M55.516,9 L45,9 L45,55.038 C45,56.674 43.674,58 42.038,58 L55.516,58 C56.888,58 58,56.88 58,55.498 L58,11.502 C58,10.12 56.888,9 55.516,9 L55.516,9 Z" id="Stroke-692" stroke="#0F81E0" stroke-width="2" stroke-linecap="round" stroke-linejoin="round" sketch:type="MSShapeGroup"></path>
            <path d="M45,51 L58,51 L58,15 L45,15 L45,51 Z" id="Fill-693" fill="#C6E3F8" sketch:type="MSShapeGroup"></path>
            <path d="M45,51 L58,51 L58,15 L45,15 L45,51 Z" id="Stroke-694" stroke="#0F81E0" stroke-width="2" stroke-linecap="round" stroke-linejoin="round" sketch:type="MSShapeGroup"></path>
            <path d="M19,15 L23,11 M19,20 L21,18 M25,14 L28,11 M19,25 L28,16 M32,12 L33,11" id="Stroke-695" stroke="#0F81E0" stroke-width="2" stroke-linecap="round" stroke-linejoin="round" sketch:type="MSShapeGroup"></path>
            <path d="M45,12 L49,12" id="Path" stroke="#0F81E0" stroke-width="2" stroke-linecap="round" stroke-linejoin="round" sketch:type="MSShapeGroup"></path>
            <path d="M10.125,12 L10.969,12" id="Path" stroke="#0F81E0" stroke-width="2" stroke-linecap="round" stroke-linejoin="round" sketch:type="MSShapeGroup"></path>
        </g>
    </g>
</svg>