<?xml version="1.0" encoding="UTF-8" standalone="no"?>
<svg width="60px" height="60px" viewBox="0 0 60 60" version="1.1" xmlns="http://www.w3.org/2000/svg" xmlns:xlink="http://www.w3.org/1999/xlink" xmlns:sketch="http://www.bohemiancoding.com/sketch/ns">
    <!-- Generator: Sketch 3.3.1 (12002) - http://www.bohemiancoding.com/sketch -->
    <title>105-Livingroom2</title>
    <desc>Created with Sketch.</desc>
    <defs></defs>
    <g id="Page-1" stroke="none" stroke-width="1" fill="none" fill-rule="evenodd" sketch:type="MSPage">
        <g id="105-Livingroom2" sketch:type="MSLayerGroup" transform="translate(1.000000, 1.000000)">
            <g id="Page-1" sketch:type="MSShapeGroup">
                <g id="105---Living-room-(Webby)">
                    <path d="M53,58 L55,58 L55,52 L51,52 L53,58 L53,58 Z" id="Fill-1004" fill="#FFFFFF"></path>
                    <path d="M53,58 L55,58 L55,52 L51,52 L53,58 L53,58 Z" id="Stroke-1005" stroke="#F0412E" stroke-width="2"></path>
                    <path d="M14,0 L46,0 L46,20 L14,20 L14,0 L14,0 Z" id="Fill-1006" fill="#FFFFFF"></path>
                    <path d="M14,0 L46,0 L46,20 L14,20 L14,0 L14,0 Z" id="Stroke-1007" stroke="#F0412E" stroke-width="2"></path>
                    <path d="M17,17 L43,17 L43,3 L17,3 L17,17 L17,17 Z" id="Fill-1008" fill="#F0C5C0"></path>
                    <path d="M17,17 L43,17 L43,3 L17,3 L17,17 L17,17 Z" id="Stroke-1009" stroke="#F0412E" stroke-width="2"></path>
                    <path d="M17,9 C17,9 27.896,11.896 33,17 M25,11.905 C25,11.905 35.75,8.854 43,9" id="Stroke-1010" stroke="#F0412E" stroke-width="2"></path>
                    <path d="M54.5,52 L3.5,52 C1.567,52 0,50.433 0,48.5 C0,46.567 1.567,45 3.5,45 L54.5,45 C56.433,45 58,46.567 58,48.5 C58,50.433 56.433,52 54.5,52 L54.5,52 L54.5,52 Z" id="Fill-1011" fill="#FFFFFF"></path>
                    <path d="M54.5,52 L3.5,52 C1.567,52 0,50.433 0,48.5 C0,46.567 1.567,45 3.5,45 L54.5,45 C56.433,45 58,46.567 58,48.5 C58,50.433 56.433,52 54.5,52 L54.5,52 L54.5,52 Z" id="Stroke-1012" stroke="#F0412E" stroke-width="2"></path>
                    <path d="M3.5,45.074 L9.538,45.074 C9.828,44.441 10,43.742 10,43 C10,40.239 7.761,38 5,38 C2.239,38 0,40.239 0,43 C0,44.159 0.411,45.212 1.072,46.06 C1.702,45.452 2.556,45.074 3.5,45.074 L3.5,45.074 L3.5,45.074 Z" id="Fill-1013" fill="#FFFFFF"></path>
                    <path d="M3.5,45.074 L9.538,45.074 C9.828,44.441 10,43.742 10,43 C10,40.239 7.761,38 5,38 C2.239,38 0,40.239 0,43 C0,44.159 0.411,45.212 1.072,46.06 C1.702,45.452 2.556,45.074 3.5,45.074 L3.5,45.074 L3.5,45.074 Z" id="Stroke-1014" stroke="#F0412E" stroke-width="2"></path>
                    <path id="Fill-1015" fill="#FFFFFF" d="M1.072,46.06 C1.045,46.026 1.026,45.986 1,45.951 L1,46.13 C1.085,46.043 1.185,45.973 1.278,45.895 C1.21,45.952 1.135,45.999 1.072,46.06 L1.072,46.06 L1.072,46.06 Z"></path>
                    <path id="Stroke-1016" stroke="#F0412E" stroke-width="2" d="M1.072,46.06 C1.045,46.026 1.026,45.986 1,45.951 L1,46.13 C1.085,46.043 1.185,45.973 1.278,45.895 C1.21,45.952 1.135,45.999 1.072,46.06 L1.072,46.06 L1.072,46.06 Z"></path>
                    <path d="M53,34.074 L31,34.074 C24.833,34.074 23.989,32.229 21.68,29.567 C17.224,24.429 9.479,23.34 4.321,27.773 C4.111,27.954 3.912,28.14 3.724,28.331 C1.898,30.187 1,32.766 1,35.37 L1,40.027 C1.911,38.803 3.357,38 5,38 C7.761,38 10,40.239 10,43 C10,43.742 9.828,44.441 9.538,45.074 L3.5,45.074 C3.26,45.074 3.026,45.1 2.799,45.146 C3.026,45.1 3.26,45.074 3.5,45.074 L54.5,45.074 C56.433,45.074 58,46.641 58,48.574 L58,39.074 C58,36.313 55.761,34.074 53,34.074 L53,34.074 L53,34.074 Z" id="Fill-1017" fill="#FFFFFF"></path>
                    <path d="M53,34.074 L31,34.074 C24.833,34.074 23.989,32.229 21.68,29.567 C17.224,24.429 9.479,23.34 4.321,27.773 C4.111,27.954 3.912,28.14 3.724,28.331 C1.898,30.187 1,32.766 1,35.37 L1,40.027 C1.911,38.803 3.357,38 5,38 C7.761,38 10,40.239 10,43 C10,43.742 9.828,44.441 9.538,45.074 L3.5,45.074 C3.26,45.074 3.026,45.1 2.799,45.146 C3.026,45.1 3.26,45.074 3.5,45.074 L54.5,45.074 C56.433,45.074 58,46.641 58,48.574 L58,39.074 C58,36.313 55.761,34.074 53,34.074 L53,34.074 L53,34.074 Z" id="Stroke-1018" stroke="#F0412E" stroke-width="2"></path>
                    <path id="Fill-1019" fill="#FFFFFF" d="M1.842,45.512 C1.748,45.564 1.65,45.609 1.561,45.668 C1.65,45.609 1.748,45.564 1.842,45.512 L1.842,45.512 L1.842,45.512 Z"></path>
                    <path id="Stroke-1020" stroke="#F0412E" stroke-width="2" d="M1.842,45.512 C1.748,45.564 1.65,45.609 1.561,45.668 C1.65,45.609 1.748,45.564 1.842,45.512 L1.842,45.512 L1.842,45.512 Z"></path>
                    <path id="Fill-1021" fill="#FFFFFF" d="M2.528,45.229 C2.4,45.267 2.27,45.298 2.149,45.349 C2.27,45.298 2.4,45.266 2.528,45.229 L2.528,45.229 L2.528,45.229 Z"></path>
                    <path id="Stroke-1022" stroke="#F0412E" stroke-width="2" d="M2.528,45.229 C2.4,45.267 2.27,45.298 2.149,45.349 C2.27,45.298 2.4,45.266 2.528,45.229 L2.528,45.229 L2.528,45.229 Z"></path>
                    <path d="M4,52.074 L4,58 L6,58 L7.984,52.074 L4,52.074 L4,52.074 Z" id="Fill-1023" fill="#FFFFFF"></path>
                    <path d="M4,52.074 L4,58 L6,58 L7.984,52.074 L4,52.074 L4,52.074 Z" id="Stroke-1024" stroke="#F0412E" stroke-width="2"></path>
                </g>
            </g>
        </g>
    </g>
</svg>