<?xml version="1.0" encoding="UTF-8" standalone="no"?>
<svg width="54px" height="60px" viewBox="0 0 54 60" version="1.1" xmlns="http://www.w3.org/2000/svg" xmlns:xlink="http://www.w3.org/1999/xlink" xmlns:sketch="http://www.bohemiancoding.com/sketch/ns">
    <!-- Generator: Sketch 3.2.2 (9983) - http://www.bohemiancoding.com/sketch -->
    <title>119 - Edit Line (Webby)</title>
    <desc>Created with Sketch.</desc>
    <defs></defs>
    <g id="Page-1" stroke="none" stroke-width="1" fill="none" fill-rule="evenodd" sketch:type="MSPage">
        <g id="119---Edit-Line-(Webby)" sketch:type="MSLayerGroup" transform="translate(1.000000, 1.000000)">
            <path d="M26,58 L0,45 L0,13 L26,25 L26,58 L26,58 Z" id="Fill-103" fill="#FFFFFF" sketch:type="MSShapeGroup"></path>
            <path d="M26,58 L0,45 L0,13 L26,25 L26,58 L26,58 Z" id="Stroke-104" stroke="#0F81E0" stroke-width="2" stroke-linecap="round" stroke-linejoin="round" sketch:type="MSShapeGroup"></path>
            <path d="M26,58 L52,45 L52,13 L26,25 L26,58 L26,58 Z" id="Fill-105" fill="#FFFFFF" sketch:type="MSShapeGroup"></path>
            <path d="M26,58 L52,45 L52,13 L26,25 L26,58 L26,58 Z" id="Stroke-106" stroke="#0F81E0" stroke-width="2" stroke-linecap="round" stroke-linejoin="round" sketch:type="MSShapeGroup"></path>
            <path d="M0,13 L26,0 L52,13 L26,25 L0,13 L0,13 Z" id="Fill-107" fill="#C6E3F8" sketch:type="MSShapeGroup"></path>
            <path d="M0,13 L26,0 L52,13 L26,25 L0,13 L0,13 Z" id="Stroke-108" stroke="#0F81E0" stroke-width="2" stroke-linecap="round" stroke-linejoin="round" sketch:type="MSShapeGroup"></path>
            <path d="M0,45 L26,33 L52,45" id="Stroke-109" stroke="#0F81E0" stroke-width="2" stroke-linecap="round" stroke-dasharray="3" sketch:type="MSShapeGroup"></path>
            <path d="M26,25 L26,0" id="Stroke-134" stroke="#0F81E0" stroke-width="2" stroke-linecap="round" stroke-dasharray="3" sketch:type="MSShapeGroup"></path>
        </g>
    </g>
</svg>