<?xml version="1.0" encoding="UTF-8" standalone="no"?>
<svg width="59px" height="60px" viewBox="0 0 59 60" version="1.1" xmlns="http://www.w3.org/2000/svg" xmlns:xlink="http://www.w3.org/1999/xlink" xmlns:sketch="http://www.bohemiancoding.com/sketch/ns">
    <!-- Generator: Sketch 3.3.1 (12002) - http://www.bohemiancoding.com/sketch -->
    <title>311-Roadmap2</title>
    <desc>Created with Sketch.</desc>
    <defs></defs>
    <g id="Page-1" stroke="none" stroke-width="1" fill="none" fill-rule="evenodd" sketch:type="MSPage">
        <g id="311-Roadmap2" sketch:type="MSLayerGroup">
            <g id="Page-1" sketch:type="MSShapeGroup">
                <g id="Icons">
                    <g id="311---Roadmap-(Webby)">
                        <path d="M19.778,47.213 L12,56 L4.222,47.213 C-0.074,42.36 -0.074,34.492 4.222,29.64 C8.518,24.787 15.482,24.787 19.778,29.64 C24.074,34.492 24.074,42.36 19.778,47.213 L19.778,47.213 L19.778,47.213 Z" id="Fill-97" fill="#F0C5C0"></path>
                        <path d="M19.778,47.213 L12,56 L4.222,47.213 C-0.074,42.36 -0.074,34.492 4.222,29.64 C8.518,24.787 15.482,24.787 19.778,29.64 C24.074,34.492 24.074,42.36 19.778,47.213 L19.778,47.213 L19.778,47.213 Z" id="Stroke-98" stroke="#F0412E" stroke-width="2"></path>
                        <path d="M53.97,16.556 L48.253,23 L42.537,16.556 C39.38,12.998 39.38,7.228 42.537,3.669 C45.694,0.11 50.813,0.11 53.97,3.669 C57.127,7.228 57.127,12.998 53.97,16.556 L53.97,16.556 L53.97,16.556 Z" id="Fill-99" fill="#F0C5C0"></path>
                        <path d="M53.97,16.556 L48.253,23 L42.537,16.556 C39.38,12.998 39.38,7.228 42.537,3.669 C45.694,0.11 50.813,0.11 53.97,3.669 C57.127,7.228 57.127,12.998 53.97,16.556 L53.97,16.556 L53.97,16.556 Z" id="Stroke-100" stroke="#F0412E" stroke-width="2"></path>
                        <path d="M43,23 L31.5,23 C29.015,23 27,25.015 27,27.5 C27,29.985 29.015,32 31.5,32 L53.5,32 C55.985,32 58,34.015 58,36.5 C58,38.985 55.985,41 53.5,41 L35.5,41 C33.015,41 31,43.015 31,45.5 C31,47.985 33.015,50 35.5,50 L47.5,50 C49.985,50 52,52.015 52,54.5 C52,56.985 49.985,59 47.5,59 L12,59" id="Path" stroke="#F0412E" stroke-width="2" stroke-dasharray="3"></path>
                        <path d="M53,9.5 C53,11.985 50.985,14 48.5,14 C46.015,14 44,11.985 44,9.5 C44,7.015 46.015,5 48.5,5 C50.985,5 53,7.015 53,9.5 L53,9.5 L53,9.5 Z" id="Fill-604" fill="#FFFFFF"></path>
                        <path d="M53,9.5 C53,11.985 50.985,14 48.5,14 C46.015,14 44,11.985 44,9.5 C44,7.015 46.015,5 48.5,5 C50.985,5 53,7.015 53,9.5 L53,9.5 L53,9.5 Z" id="Stroke-605" stroke="#F0412E" stroke-width="2"></path>
                        <path d="M17,37 C17,39.761 14.761,42 12,42 C9.239,42 7,39.761 7,37 C7,34.239 9.239,32 12,32 C14.761,32 17,34.239 17,37 L17,37 L17,37 Z" id="Fill-606" fill="#FFFFFF"></path>
                        <path d="M17,37 C17,39.761 14.761,42 12,42 C9.239,42 7,39.761 7,37 C7,34.239 9.239,32 12,32 C14.761,32 17,34.239 17,37 L17,37 L17,37 Z" id="Stroke-607" stroke="#F0412E" stroke-width="2"></path>
                    </g>
                </g>
            </g>
        </g>
    </g>
</svg>