<?xml version="1.0" encoding="UTF-8" standalone="no"?>
<svg width="60px" height="59px" viewBox="0 0 60 59" version="1.1" xmlns="http://www.w3.org/2000/svg" xmlns:xlink="http://www.w3.org/1999/xlink" xmlns:sketch="http://www.bohemiancoding.com/sketch/ns">
    <!-- Generator: Sketch 3.3.1 (12002) - http://www.bohemiancoding.com/sketch -->
    <title>373-Home2</title>
    <desc>Created with Sketch.</desc>
    <defs></defs>
    <g id="Page-1" stroke="none" stroke-width="1" fill="none" fill-rule="evenodd" sketch:type="MSPage">
        <g id="373-Home2" sketch:type="MSLayerGroup" transform="translate(1.000000, 2.000000)">
            <g id="Page-1" sketch:type="MSShapeGroup">
                <g id="Icons">
                    <g id="373---Home-(Webby)">
                        <path d="M52.792,26.528 L29,8.188 L5.208,26.528 C3.98,27.474 2.234,27.329 1.179,26.193 C-0.015,24.906 0.146,22.873 1.529,21.791 L26.959,1.896 L29,0 L31.041,1.896 L56.471,21.791 C57.854,22.873 58.015,24.906 56.821,26.193 C55.766,27.329 54.02,27.474 52.792,26.528 L52.792,26.528 L52.792,26.528 Z" id="Fill-40" fill="#FFFFFF"></path>
                        <path d="M52.792,26.528 L29,8.188 L5.208,26.528 C3.98,27.474 2.234,27.329 1.179,26.193 C-0.015,24.906 0.146,22.873 1.529,21.791 L26.959,1.896 L29,0 L31.041,1.896 L56.471,21.791 C57.854,22.873 58.015,24.906 56.821,26.193 C55.766,27.329 54.02,27.474 52.792,26.528 L52.792,26.528 L52.792,26.528 Z" id="Stroke-41" stroke="#F0412E" stroke-width="2"></path>
                        <path d="M52.792,26.528 L29,8.188 L5.208,26.528 C3.98,27.474 2.234,27.329 1.179,26.193 C-0.015,24.906 0.146,22.873 1.529,21.791 L26.959,1.896 L29,0 L31.041,1.896 L56.471,21.791 C57.854,22.873 58.015,24.906 56.821,26.193 C55.766,27.329 54.02,27.474 52.792,26.528 L52.792,26.528 L52.792,26.528 Z" id="Fill-42" fill="#FFFFFF"></path>
                        <path d="M52.792,26.528 L29,8.188 L5.208,26.528 C3.98,27.474 2.234,27.329 1.179,26.193 C-0.015,24.906 0.146,22.873 1.529,21.791 L26.959,1.896 L29,0 L31.041,1.896 L56.471,21.791 C57.854,22.873 58.015,24.906 56.821,26.193 C55.766,27.329 54.02,27.474 52.792,26.528 L52.792,26.528 L52.792,26.528 Z" id="Stroke-43" stroke="#F0412E" stroke-width="2"></path>
                        <path d="M6,25.917 L6,56 L52,56 L52,25.917 L29,8.188 L6,25.917 Z" id="Fill-44" fill="#F0C5C0"></path>
                        <path d="M29,8.188 L6,25.917 L6,56 L52,56 L52,25.917 L29,8.188 L29,8.188 Z" id="Stroke-45" stroke="#F0412E" stroke-width="2"></path>
                        <path d="M0,56 L0,47" id="Path" stroke="#F0412E" stroke-width="2"></path>
                        <path d="M3,56 L3,47" id="Path" stroke="#F0412E" stroke-width="2"></path>
                        <path d="M55,56 L55,47" id="Path" stroke="#F0412E" stroke-width="2"></path>
                        <path d="M58,56 L58,47" id="Path" stroke="#F0412E" stroke-width="2"></path>
                        <path d="M0,49 L6,49" id="Path" stroke="#F0412E" stroke-width="2"></path>
                        <path d="M0,54 L6,54" id="Path" stroke="#F0412E" stroke-width="2"></path>
                        <path d="M52,49 L58,49" id="Path" stroke="#F0412E" stroke-width="2"></path>
                        <path d="M52,54 L58,54" id="Path" stroke="#F0412E" stroke-width="2"></path>
                        <path d="M14,25 L26,25 L26,33 L14,33 L14,25 L14,25 Z" id="Fill-822" fill="#FFFFFF"></path>
                        <path d="M14,25 L26,25 L26,33 L14,33 L14,25 L14,25 Z" id="Stroke-823" stroke="#F0412E" stroke-width="2"></path>
                        <path d="M14,39 L26,39 L26,49 L14,49 L14,39 L14,39 Z" id="Fill-824" fill="#FFFFFF"></path>
                        <path d="M14,39 L26,39 L26,49 L14,49 L14,39 L14,39 Z" id="Stroke-825" stroke="#F0412E" stroke-width="2"></path>
                        <path d="M32,25 L44,25 L44,33 L32,33 L32,25 L32,25 Z" id="Fill-826" fill="#FFFFFF"></path>
                        <path d="M32,25 L44,25 L44,33 L32,33 L32,25 L32,25 Z" id="Stroke-827" stroke="#F0412E" stroke-width="2"></path>
                        <path d="M32,39 L44,39 L44,56 L32,56 L32,39 L32,39 Z" id="Fill-828" fill="#FFFFFF"></path>
                        <path d="M32,39 L44,39 L44,56 L32,56 L32,39 L32,39 Z" id="Stroke-829" stroke="#F0412E" stroke-width="2"></path>
                        <path d="M20,39 L20,49 M14,44 L26,44 M14,28 L26,28 M32,30 L44,30" id="Stroke-830" stroke="#F0412E" stroke-width="2"></path>
                    </g>
                </g>
            </g>
        </g>
    </g>
</svg>