<?xml version="1.0" encoding="UTF-8" standalone="no"?>
<svg width="60px" height="60px" viewBox="0 0 60 60" version="1.1" xmlns="http://www.w3.org/2000/svg" xmlns:xlink="http://www.w3.org/1999/xlink" xmlns:sketch="http://www.bohemiancoding.com/sketch/ns">
    <!-- Generator: Sketch 3.2.2 (9983) - http://www.bohemiancoding.com/sketch -->
    <title>55 - Coding App (Webby)</title>
    <desc>Created with Sketch.</desc>
    <defs></defs>
    <g id="Page-1" stroke="none" stroke-width="1" fill="none" fill-rule="evenodd" sketch:type="MSPage">
        <g id="55---Coding-App-(Webby)" sketch:type="MSLayerGroup" transform="translate(1.000000, 1.000000)">
            <path d="M0,0 L58,0 L58,58 L0,58 L0,0 Z" id="Fill-213" fill="#FFFFFF" sketch:type="MSShapeGroup"></path>
            <path d="M0,0 L58,0 L58,58 L0,58 L0,0 Z" id="Stroke-214" stroke="#0096E6" stroke-width="2" sketch:type="MSShapeGroup"></path>
            <path d="M0,0 L58,0 L58,12 L0,12 L0,0 Z" id="Fill-219" fill="#D0E8F9" sketch:type="MSShapeGroup"></path>
            <path d="M0,0 L58,0 L58,12 L0,12 L0,0 Z" id="Stroke-220" stroke="#0096E6" stroke-width="2" sketch:type="MSShapeGroup"></path>
            <path d="M0,12 L7,12 L7,58 L0,58 L0,12 Z" id="Fill-239" fill="#D0E8F9" sketch:type="MSShapeGroup"></path>
            <path d="M0,12 L7,12 L7,58 L0,58 L0,12 Z" id="Stroke-240" stroke="#0096E6" stroke-width="2" stroke-linecap="round" sketch:type="MSShapeGroup"></path>
            <path d="M3,17 L4,17 M3,21 L4,21 M3,25 L4,25 M3,29 L4,29 M3,33 L4,33 M3,37 L4,37 M3,41 L4,41 M3,45 L4,45 M3,49 L4,49 M3,53 L4,53" id="Stroke-241" stroke="#0096E6" stroke-width="2" stroke-linecap="round" sketch:type="MSShapeGroup"></path>
            <path d="M12,17 L25,17 M29,17 L39,17 M43,17 L45,17 M50,21 L35,21 M31,21 L17,21 M13,21 L12,21 M12,25 L21,25 M25,25 L27,25 M31,25 L45,25 M12,29 L25,29 M29,29 L39,29 M43,33 L35,33 M31,33 L17,33 M13,33 L12,33 M12,37 L21,37 M25,37 L27,37 M31,37 L46,37 M12,41 L25,41 M29,41 L39,41 M43,41 L50,41 M39,45 L35,45 M31,45 L17,45 M13,45 L12,45 M12,49 L21,49 M25,49 L27,49 M31,49 L38,49 M42,49 L43,49" id="Stroke-250" stroke="#0096E6" stroke-width="2" stroke-linecap="round" sketch:type="MSShapeGroup"></path>
            <path d="M9,6 C9,7.657 7.657,9 6,9 C4.343,9 3,7.657 3,6 C3,4.343 4.343,3 6,3 C7.657,3 9,4.343 9,6 L9,6 Z" id="Fill-1712" fill="#FFFFFF" sketch:type="MSShapeGroup"></path>
            <path d="M9,6 C9,7.657 7.657,9 6,9 C4.343,9 3,7.657 3,6 C3,4.343 4.343,3 6,3 C7.657,3 9,4.343 9,6 L9,6 Z" id="Stroke-1713" stroke="#0096E6" stroke-width="2" sketch:type="MSShapeGroup"></path>
            <path d="M18,6 C18,7.657 16.657,9 15,9 C13.343,9 12,7.657 12,6 C12,4.343 13.343,3 15,3 C16.657,3 18,4.343 18,6 L18,6 Z" id="Fill-1714" fill="#FFFFFF" sketch:type="MSShapeGroup"></path>
            <path d="M18,6 C18,7.657 16.657,9 15,9 C13.343,9 12,7.657 12,6 C12,4.343 13.343,3 15,3 C16.657,3 18,4.343 18,6 L18,6 Z" id="Stroke-1715" stroke="#0096E6" stroke-width="2" sketch:type="MSShapeGroup"></path>
            <path d="M27,6 C27,7.657 25.657,9 24,9 C22.343,9 21,7.657 21,6 C21,4.343 22.343,3 24,3 C25.657,3 27,4.343 27,6 L27,6 Z" id="Fill-1716" fill="#FFFFFF" sketch:type="MSShapeGroup"></path>
            <path d="M27,6 C27,7.657 25.657,9 24,9 C22.343,9 21,7.657 21,6 C21,4.343 22.343,3 24,3 C25.657,3 27,4.343 27,6 L27,6 Z" id="Stroke-1717" stroke="#0096E6" stroke-width="2" sketch:type="MSShapeGroup"></path>
        </g>
    </g>
</svg>