<?xml version="1.0" encoding="UTF-8" standalone="no"?>
<svg width="60px" height="60px" viewBox="0 0 60 60" version="1.1" xmlns="http://www.w3.org/2000/svg" xmlns:xlink="http://www.w3.org/1999/xlink" xmlns:sketch="http://www.bohemiancoding.com/sketch/ns">
    <!-- Generator: Sketch 3.3.1 (12002) - http://www.bohemiancoding.com/sketch -->
    <title>79-CalltoAction2</title>
    <desc>Created with Sketch.</desc>
    <defs></defs>
    <g id="Page-1" stroke="none" stroke-width="1" fill="none" fill-rule="evenodd" sketch:type="MSPage">
        <g id="79-CalltoAction2" sketch:type="MSLayerGroup" transform="translate(1.000000, 1.000000)">
            <g id="Page-1" sketch:type="MSShapeGroup">
                <g id="79---Call-to-Action-(Webby)">
                    <path d="M0,0 L58,0 L58,58 L0,58 L0,0 L0,0 Z" id="Fill-129" fill="#F0CDCA"></path>
                    <path d="M0,0 L58,0 L58,58 L0,58 L0,0 L0,0 Z" id="Stroke-130" stroke="#F0412E" stroke-width="2"></path>
                    <path d="M58,0 L58,12 L0,12 L0,0 L58,0 Z" id="Fill-131" fill="#F0CDCA"></path>
                    <path d="M0,0 L58,0 L58,12 L0,12 L0,0 L0,0 Z" id="Stroke-132" stroke="#F0412E" stroke-width="2"></path>
                    <path d="M5,17 L53,17 L53,41 L5,41 L5,17 L5,17 Z" id="Fill-1408" fill="#FFFFFF"></path>
                    <path d="M5,17 L53,17 L53,41 L5,41 L5,17 L5,17 Z" id="Stroke-1409" stroke="#F0412E" stroke-width="2"></path>
                    <path d="M9,6 C9,7.657 7.657,9 6,9 C4.343,9 3,7.657 3,6 C3,4.343 4.343,3 6,3 C7.657,3 9,4.343 9,6 L9,6 L9,6 Z" id="Fill-1410" fill="#FFFFFF"></path>
                    <path d="M9,6 C9,7.657 7.657,9 6,9 C4.343,9 3,7.657 3,6 C3,4.343 4.343,3 6,3 C7.657,3 9,4.343 9,6 L9,6 L9,6 Z" id="Stroke-1411" stroke="#F0412E" stroke-width="2"></path>
                    <path d="M18,6 C18,7.657 16.657,9 15,9 C13.343,9 12,7.657 12,6 C12,4.343 13.343,3 15,3 C16.657,3 18,4.343 18,6 L18,6 L18,6 Z" id="Fill-1412" fill="#FFFFFF"></path>
                    <path d="M18,6 C18,7.657 16.657,9 15,9 C13.343,9 12,7.657 12,6 C12,4.343 13.343,3 15,3 C16.657,3 18,4.343 18,6 L18,6 L18,6 Z" id="Stroke-1413" stroke="#F0412E" stroke-width="2"></path>
                    <path d="M27,6 C27,7.657 25.657,9 24,9 C22.343,9 21,7.657 21,6 C21,4.343 22.343,3 24,3 C25.657,3 27,4.343 27,6 L27,6 L27,6 Z" id="Fill-1414" fill="#FFFFFF"></path>
                    <path d="M27,6 C27,7.657 25.657,9 24,9 C22.343,9 21,7.657 21,6 C21,4.343 22.343,3 24,3 C25.657,3 27,4.343 27,6 L27,6 L27,6 Z" id="Stroke-1415" stroke="#F0412E" stroke-width="2"></path>
                    <path d="M9,33 L23,33 L23,37 L9,37 L9,33 L9,33 Z" id="Fill-1416" fill="#F0CDCA"></path>
                    <path d="M9,33 L23,33 L23,37 L9,37 L9,33 L9,33 Z" id="Stroke-1417" stroke="#F0412E" stroke-width="2"></path>
                    <path d="M5,45 L27,45 L27,52 L5,52 L5,45 L5,45 Z" id="Fill-1418" fill="#FFFFFF"></path>
                    <path d="M5,45 L27,45 L27,52 L5,52 L5,45 L5,45 Z" id="Stroke-1419" stroke="#F0412E" stroke-width="2"></path>
                    <path d="M31,45 L53,45 L53,52 L31,52 L31,45 L31,45 Z" id="Fill-1420" fill="#FFFFFF"></path>
                    <path d="M31,45 L53,45 L53,52 L31,52 L31,45 L31,45 Z" id="Stroke-1421" stroke="#F0412E" stroke-width="2"></path>
                    <path d="M32,29 L9,29 M32,25 L9,25" id="Stroke-1422" stroke="#F0412E" stroke-width="2"></path>
                </g>
            </g>
        </g>
    </g>
</svg>