<?xml version="1.0" encoding="UTF-8" standalone="no"?>
<svg width="59px" height="58px" viewBox="0 0 59 58" version="1.1" xmlns="http://www.w3.org/2000/svg" xmlns:xlink="http://www.w3.org/1999/xlink" xmlns:sketch="http://www.bohemiancoding.com/sketch/ns">
    <!-- Generator: Sketch 3.3.1 (12002) - http://www.bohemiancoding.com/sketch -->
    <title>92-Graph2</title>
    <desc>Created with Sketch.</desc>
    <defs></defs>
    <g id="Page-1" stroke="none" stroke-width="1" fill="none" fill-rule="evenodd" sketch:type="MSPage">
        <g id="92-Graph2" sketch:type="MSLayerGroup">
            <g id="Page-1" sketch:type="MSShapeGroup">
                <g id="92---Graph-(Webby)">
                    <path d="M2,47 L11,38 L17,46 L24,31 L30,39 L41,22 L47,30 L58,13 L58,56 L2,56 L2,47 L2,47 Z" id="Fill-1" fill="#F0E7E7"></path>
                    <path d="M2,47 L11,38 L17,46 L24,31 L30,39 L41,22 L47,30 L58,13 L58,56 L2,56 L2,47 L2,47 Z" id="Stroke-2" stroke="#F0412E" stroke-width="2"></path>
                    <path d="M53,25 C53,25.552 52.552,26 52,26 C51.448,26 51,25.552 51,25 C51,24.448 51.448,24 52,24 C52.552,24 53,24.448 53,25" id="Fill-3" fill="#F0412E"></path>
                    <path d="M56,22 C56,22.552 55.552,23 55,23 C54.448,23 54,22.552 54,22 C54,21.448 54.448,21 55,21 C55.552,21 56,21.448 56,22" id="Fill-4" fill="#F0412E"></path>
                    <path d="M56,28 C56,28.552 55.552,29 55,29 C54.448,29 54,28.552 54,28 C54,27.448 54.448,27 55,27 C55.552,27 56,27.448 56,28" id="Fill-5" fill="#F0412E"></path>
                    <path d="M53,31 C53,31.552 52.552,32 52,32 C51.448,32 51,31.552 51,31 C51,30.448 51.448,30 52,30 C52.552,30 53,30.448 53,31" id="Fill-6" fill="#F0412E"></path>
                    <path d="M47,31 C47,31.552 46.552,32 46,32 C45.448,32 45,31.552 45,31 C45,30.448 45.448,30 46,30 C46.552,30 47,30.448 47,31" id="Fill-7" fill="#F0412E"></path>
                    <path d="M41,31 C41,31.552 40.552,32 40,32 C39.448,32 39,31.552 39,31 C39,30.448 39.448,30 40,30 C40.552,30 41,30.448 41,31" id="Fill-8" fill="#F0412E"></path>
                    <path d="M44,28 C44,28.552 43.552,29 43,29 C42.448,29 42,28.552 42,28 C42,27.448 42.448,27 43,27 C43.552,27 44,27.448 44,28" id="Fill-9" fill="#F0412E"></path>
                    <path d="M26,40 C26,40.552 25.552,41 25,41 C24.448,41 24,40.552 24,40 C24,39.448 24.448,39 25,39 C25.552,39 26,39.448 26,40" id="Fill-10" fill="#F0412E"></path>
                    <path d="M53,37 C53,37.552 52.552,38 52,38 C51.448,38 51,37.552 51,37 C51,36.448 51.448,36 52,36 C52.552,36 53,36.448 53,37" id="Fill-11" fill="#F0412E"></path>
                    <path d="M56,34 C56,34.552 55.552,35 55,35 C54.448,35 54,34.552 54,34 C54,33.448 54.448,33 55,33 C55.552,33 56,33.448 56,34" id="Fill-12" fill="#F0412E"></path>
                    <path d="M56,40 C56,40.552 55.552,41 55,41 C54.448,41 54,40.552 54,40 C54,39.448 54.448,39 55,39 C55.552,39 56,39.448 56,40" id="Fill-13" fill="#F0412E"></path>
                    <path d="M47,37 C47,37.552 46.552,38 46,38 C45.448,38 45,37.552 45,37 C45,36.448 45.448,36 46,36 C46.552,36 47,36.448 47,37" id="Fill-14" fill="#F0412E"></path>
                    <path d="M50,34 C50,34.552 49.552,35 49,35 C48.448,35 48,34.552 48,34 C48,33.448 48.448,33 49,33 C49.552,33 50,33.448 50,34" id="Fill-15" fill="#F0412E"></path>
                    <path d="M50,40 C50,40.552 49.552,41 49,41 C48.448,41 48,40.552 48,40 C48,39.448 48.448,39 49,39 C49.552,39 50,39.448 50,40" id="Fill-16" fill="#F0412E"></path>
                    <path d="M32,40 C32,40.552 31.552,41 31,41 C30.448,41 30,40.552 30,40 C30,39.448 30.448,39 31,39 C31.552,39 32,39.448 32,40" id="Fill-17" fill="#F0412E"></path>
                    <path d="M35,37 C35,37.552 34.552,38 34,38 C33.448,38 33,37.552 33,37 C33,36.448 33.448,36 34,36 C34.552,36 35,36.448 35,37" id="Fill-18" fill="#F0412E"></path>
                    <path d="M41,37 C41,37.552 40.552,38 40,38 C39.448,38 39,37.552 39,37 C39,36.448 39.448,36 40,36 C40.552,36 41,36.448 41,37" id="Fill-19" fill="#F0412E"></path>
                    <path d="M23,43 C23,43.552 22.552,44 22,44 C21.448,44 21,43.552 21,43 C21,42.448 21.448,42 22,42 C22.552,42 23,42.448 23,43" id="Fill-20" fill="#F0412E"></path>
                    <path d="M29,43 C29,43.552 28.552,44 28,44 C27.448,44 27,43.552 27,43 C27,42.448 27.448,42 28,42 C28.552,42 29,42.448 29,43" id="Fill-21" fill="#F0412E"></path>
                    <path d="M11,43 C11,43.552 10.552,44 10,44 C9.448,44 9,43.552 9,43 C9,42.448 9.448,42 10,42 C10.552,42 11,42.448 11,43" id="Fill-22" fill="#F0412E"></path>
                    <path d="M53,43 C53,43.552 52.552,44 52,44 C51.448,44 51,43.552 51,43 C51,42.448 51.448,42 52,42 C52.552,42 53,42.448 53,43" id="Fill-23" fill="#F0412E"></path>
                    <path d="M47,43 C47,43.552 46.552,44 46,44 C45.448,44 45,43.552 45,43 C45,42.448 45.448,42 46,42 C46.552,42 47,42.448 47,43" id="Fill-24" fill="#F0412E"></path>
                    <path d="M35,43 C35,43.552 34.552,44 34,44 C33.448,44 33,43.552 33,43 C33,42.448 33.448,42 34,42 C34.552,42 35,42.448 35,43" id="Fill-25" fill="#F0412E"></path>
                    <path d="M41,43 C41,43.552 40.552,44 40,44 C39.448,44 39,43.552 39,43 C39,42.448 39.448,42 40,42 C40.552,42 41,42.448 41,43" id="Fill-26" fill="#F0412E"></path>
                    <path d="M38,34 C38,34.552 37.552,35 37,35 C36.448,35 36,34.552 36,34 C36,33.448 36.448,33 37,33 C37.552,33 38,33.448 38,34" id="Fill-27" fill="#F0412E"></path>
                    <path d="M44,34 C44,34.552 43.552,35 43,35 C42.448,35 42,34.552 42,34 C42,33.448 42.448,33 43,33 C43.552,33 44,33.448 44,34" id="Fill-28" fill="#F0412E"></path>
                    <path d="M38,40 C38,40.552 37.552,41 37,41 C36.448,41 36,40.552 36,40 C36,39.448 36.448,39 37,39 C37.552,39 38,39.448 38,40" id="Fill-29" fill="#F0412E"></path>
                    <path d="M44,40 C44,40.552 43.552,41 43,41 C42.448,41 42,40.552 42,40 C42,39.448 42.448,39 43,39 C43.552,39 44,39.448 44,40" id="Fill-30" fill="#F0412E"></path>
                    <path d="M23,49 C23,49.552 22.552,50 22,50 C21.448,50 21,49.552 21,49 C21,48.448 21.448,48 22,48 C22.552,48 23,48.448 23,49" id="Fill-31" fill="#F0412E"></path>
                    <path d="M26,46 C26,46.552 25.552,47 25,47 C24.448,47 24,46.552 24,46 C24,45.448 24.448,45 25,45 C25.552,45 26,45.448 26,46" id="Fill-32" fill="#F0412E"></path>
                    <path d="M26,52 C26,52.552 25.552,53 25,53 C24.448,53 24,52.552 24,52 C24,51.448 24.448,51 25,51 C25.552,51 26,51.448 26,52" id="Fill-33" fill="#F0412E"></path>
                    <path d="M29,49 C29,49.552 28.552,50 28,50 C27.448,50 27,49.552 27,49 C27,48.448 27.448,48 28,48 C28.552,48 29,48.448 29,49" id="Fill-34" fill="#F0412E"></path>
                    <path d="M17,49 C17,49.552 16.552,50 16,50 C15.448,50 15,49.552 15,49 C15,48.448 15.448,48 16,48 C16.552,48 17,48.448 17,49" id="Fill-35" fill="#F0412E"></path>
                    <path d="M20,46 C20,46.552 19.552,47 19,47 C18.448,47 18,46.552 18,46 C18,45.448 18.448,45 19,45 C19.552,45 20,45.448 20,46" id="Fill-36" fill="#F0412E"></path>
                    <path d="M20,52 C20,52.552 19.552,53 19,53 C18.448,53 18,52.552 18,52 C18,51.448 18.448,51 19,51 C19.552,51 20,51.448 20,52" id="Fill-37" fill="#F0412E"></path>
                    <path d="M5,49 C5,49.552 4.552,50 4,50 C3.448,50 3,49.552 3,49 C3,48.448 3.448,48 4,48 C4.552,48 5,48.448 5,49" id="Fill-38" fill="#F0412E"></path>
                    <path d="M11,49 C11,49.552 10.552,50 10,50 C9.448,50 9,49.552 9,49 C9,48.448 9.448,48 10,48 C10.552,48 11,48.448 11,49" id="Fill-39" fill="#F0412E"></path>
                    <path d="M8,46 C8,46.552 7.552,47 7,47 C6.448,47 6,46.552 6,46 C6,45.448 6.448,45 7,45 C7.552,45 8,45.448 8,46" id="Fill-40" fill="#F0412E"></path>
                    <path d="M14,46 C14,46.552 13.552,47 13,47 C12.448,47 12,46.552 12,46 C12,45.448 12.448,45 13,45 C13.552,45 14,45.448 14,46" id="Fill-41" fill="#F0412E"></path>
                    <path d="M8,52 C8,52.552 7.552,53 7,53 C6.448,53 6,52.552 6,52 C6,51.448 6.448,51 7,51 C7.552,51 8,51.448 8,52" id="Fill-42" fill="#F0412E"></path>
                    <path d="M14,52 C14,52.552 13.552,53 13,53 C12.448,53 12,52.552 12,52 C12,51.448 12.448,51 13,51 C13.552,51 14,51.448 14,52" id="Fill-43" fill="#F0412E"></path>
                    <path d="M53,49 C53,49.552 52.552,50 52,50 C51.448,50 51,49.552 51,49 C51,48.448 51.448,48 52,48 C52.552,48 53,48.448 53,49" id="Fill-44" fill="#F0412E"></path>
                    <path d="M56,46 C56,46.552 55.552,47 55,47 C54.448,47 54,46.552 54,46 C54,45.448 54.448,45 55,45 C55.552,45 56,45.448 56,46" id="Fill-45" fill="#F0412E"></path>
                    <path d="M56,52 C56,52.552 55.552,53 55,53 C54.448,53 54,52.552 54,52 C54,51.448 54.448,51 55,51 C55.552,51 56,51.448 56,52" id="Fill-46" fill="#F0412E"></path>
                    <path d="M47,49 C47,49.552 46.552,50 46,50 C45.448,50 45,49.552 45,49 C45,48.448 45.448,48 46,48 C46.552,48 47,48.448 47,49" id="Fill-47" fill="#F0412E"></path>
                    <path d="M50,46 C50,46.552 49.552,47 49,47 C48.448,47 48,46.552 48,46 C48,45.448 48.448,45 49,45 C49.552,45 50,45.448 50,46" id="Fill-48" fill="#F0412E"></path>
                    <path d="M50,52 C50,52.552 49.552,53 49,53 C48.448,53 48,52.552 48,52 C48,51.448 48.448,51 49,51 C49.552,51 50,51.448 50,52" id="Fill-49" fill="#F0412E"></path>
                    <path d="M32,46 C32,46.552 31.552,47 31,47 C30.448,47 30,46.552 30,46 C30,45.448 30.448,45 31,45 C31.552,45 32,45.448 32,46" id="Fill-50" fill="#F0412E"></path>
                    <path d="M32,52 C32,52.552 31.552,53 31,53 C30.448,53 30,52.552 30,52 C30,51.448 30.448,51 31,51 C31.552,51 32,51.448 32,52" id="Fill-51" fill="#F0412E"></path>
                    <path d="M35,49 C35,49.552 34.552,50 34,50 C33.448,50 33,49.552 33,49 C33,48.448 33.448,48 34,48 C34.552,48 35,48.448 35,49" id="Fill-52" fill="#F0412E"></path>
                    <path d="M41,49 C41,49.552 40.552,50 40,50 C39.448,50 39,49.552 39,49 C39,48.448 39.448,48 40,48 C40.552,48 41,48.448 41,49" id="Fill-53" fill="#F0412E"></path>
                    <path d="M23,55 C23,55.552 22.552,56 22,56 C21.448,56 21,55.552 21,55 C21,54.448 21.448,54 22,54 C22.552,54 23,54.448 23,55" id="Fill-54" fill="#F0412E"></path>
                    <path d="M29,55 C29,55.552 28.552,56 28,56 C27.448,56 27,55.552 27,55 C27,54.448 27.448,54 28,54 C28.552,54 29,54.448 29,55" id="Fill-55" fill="#F0412E"></path>
                    <path d="M17,55 C17,55.552 16.552,56 16,56 C15.448,56 15,55.552 15,55 C15,54.448 15.448,54 16,54 C16.552,54 17,54.448 17,55" id="Fill-56" fill="#F0412E"></path>
                    <path d="M5,55 C5,55.552 4.552,56 4,56 C3.448,56 3,55.552 3,55 C3,54.448 3.448,54 4,54 C4.552,54 5,54.448 5,55" id="Fill-57" fill="#F0412E"></path>
                    <path d="M11,55 C11,55.552 10.552,56 10,56 C9.448,56 9,55.552 9,55 C9,54.448 9.448,54 10,54 C10.552,54 11,54.448 11,55" id="Fill-58" fill="#F0412E"></path>
                    <path d="M53,55 C53,55.552 52.552,56 52,56 C51.448,56 51,55.552 51,55 C51,54.448 51.448,54 52,54 C52.552,54 53,54.448 53,55" id="Fill-59" fill="#F0412E"></path>
                    <path d="M47,55 C47,55.552 46.552,56 46,56 C45.448,56 45,55.552 45,55 C45,54.448 45.448,54 46,54 C46.552,54 47,54.448 47,55" id="Fill-60" fill="#F0412E"></path>
                    <path d="M35,55 C35,55.552 34.552,56 34,56 C33.448,56 33,55.552 33,55 C33,54.448 33.448,54 34,54 C34.552,54 35,54.448 35,55" id="Fill-61" fill="#F0412E"></path>
                    <path d="M41,55 C41,55.552 40.552,56 40,56 C39.448,56 39,55.552 39,55 C39,54.448 39.448,54 40,54 C40.552,54 41,54.448 41,55" id="Fill-62" fill="#F0412E"></path>
                    <path d="M38,46 C38,46.552 37.552,47 37,47 C36.448,47 36,46.552 36,46 C36,45.448 36.448,45 37,45 C37.552,45 38,45.448 38,46" id="Fill-63" fill="#F0412E"></path>
                    <path d="M44,46 C44,46.552 43.552,47 43,47 C42.448,47 42,46.552 42,46 C42,45.448 42.448,45 43,45 C43.552,45 44,45.448 44,46" id="Fill-64" fill="#F0412E"></path>
                    <path d="M38,52 C38,52.552 37.552,53 37,53 C36.448,53 36,52.552 36,52 C36,51.448 36.448,51 37,51 C37.552,51 38,51.448 38,52" id="Fill-65" fill="#F0412E"></path>
                    <path d="M44,52 C44,52.552 43.552,53 43,53 C42.448,53 42,52.552 42,52 C42,51.448 42.448,51 43,51 C43.552,51 44,51.448 44,52" id="Fill-66" fill="#F0412E"></path>
                    <path d="M2,0 L2,58 M58,56 L0,56 M6,27 L8,27 M6,23 L8,23 M6,19 L8,19 M6,15 L8,15 M6,11 L8,11 M6,7 L8,7 M6,3 L8,3" id="Stroke-67" stroke="#F0412E" stroke-width="2"></path>
                </g>
            </g>
        </g>
    </g>
</svg>