<?xml version="1.0" encoding="UTF-8" standalone="no"?>
<svg width="100px" height="100px" viewBox="0 0 100 100" version="1.1" xmlns="http://www.w3.org/2000/svg" xmlns:xlink="http://www.w3.org/1999/xlink" xmlns:sketch="http://www.bohemiancoding.com/sketch/ns">
    <title>build</title>
    <description>Created with Sketch (http://www.bohemiancoding.com/sketch)</description>
    <defs></defs>
    <g id="Page-1" stroke="none" stroke-width="1" fill="none" fill-rule="evenodd" sketch:type="MSPage">
        <g id="build" sketch:type="MSArtboardGroup">
            <path d="M50,99 C77.0619541,99 99,77.0619541 99,50 C99,22.9380459 77.0619541,1 50,1 C22.9380459,1 1,22.9380459 1,50 C1,77.0619541 22.9380459,99 50,99 Z" id="Oval-13" stroke="#979797" stroke-width="2" sketch:type="MSShapeGroup"></path>
            <g id="--" sketch:type="MSLayerGroup" transform="translate(14.000000, 83.000000)" fill="#979797">
                <path d="M0.488893046,0 C-0.0665610891,0 -0.181123782,0.303271883 0.223829348,0.665707393 C0.223829348,0.665707393 8.41517355,8.14191698 13.1423342,10.6518555 C18.164673,13.3185221 28.6527015,15.7660795 28.6527015,15.7660795 C29.1853724,15.8952702 30.0576856,16 30.6170381,16 L34.0001494,16 C34.5523516,16 35,15.5553691 35,14.9991283 L35,1.00087166 C35,0.448105505 34.5509358,0 33.9942613,0 L0.488893046,0 Z" id="Rectangle-18" sketch:type="MSShapeGroup"></path>
                <path d="M38.007771,0 C37.4511944,0 37,0.444630861 37,1.00087166 L37,14.9991283 C37,15.5518945 37.4516065,16 37.9993686,16 L41.5191861,16 C42.0711221,16 42.9447096,15.8924291 43.4871092,15.7528131 C43.4871092,15.7528131 54.3081429,13.0798221 58.8188477,10.5756836 C63.6223143,7.90901685 71.2107386,0.675686959 71.2107386,0.675686959 C71.6090166,0.302515356 71.4902167,0 70.9241138,0 L38.007771,0 Z" id="Rectangle-18" sketch:type="MSShapeGroup"></path>
            </g>
            <g id="---" sketch:type="MSLayerGroup" transform="translate(3.000000, 65.000000)" fill="#979797">
                <path d="M0.860575321,0 C0.306548938,0 0.078796597,0.395507812 0.345271829,0.871592015 L8.32513827,15.128408 C8.59457039,15.609775 9.25339656,16 9.81406533,16 L27.998923,16 C28.5518025,16 29,15.5553691 29,14.9991283 L29,1.00087166 C29,0.448105505 28.5539014,0 27.9968465,0 L0.860575321,0 Z" id="Rectangle-18" sketch:type="MSShapeGroup"></path>
                <path d="M66.0041653,0 C65.4495801,0 65,0.444630861 65,1.00087166 L65,14.9991283 C65,15.5518945 65.456734,16 65.9949146,16 L84.0678295,16 C84.6173057,16 85.2759295,15.6044922 85.5387068,15.1169798 L93.2110491,0.883020163 C93.473916,0.395341593 93.2364073,0 92.6828465,0 L66.0041653,0 Z" id="Rectangle-18" sketch:type="MSShapeGroup"></path>
                <rect id="Rectangle-18" sketch:type="MSShapeGroup" x="31" y="0" width="32" height="16" rx="1"></rect>
            </g>
            <g id="----" sketch:type="MSLayerGroup" transform="translate(17.000000, 47.000000)" fill="#979797">
                <rect id="Rectangle-18" sketch:type="MSShapeGroup" x="0" y="0" width="32" height="16" rx="1"></rect>
                <path d="M69.0093387,0 C68.4518963,0 68,0.444630861 68,1.00087166 L68,14.9991283 C68,15.5518945 68.4459243,16 69.0041454,16 L79.5251515,16 C80.0797257,16 80.5711303,15.5553691 80.6234646,14.9991283 L81.9405003,1.00087166 C81.9925077,0.448105505 81.583605,0 81.0253293,0 L69.0093387,0 Z" id="Rectangle-18" sketch:type="MSShapeGroup"></path>
                <rect id="Rectangle-18" sketch:type="MSShapeGroup" x="34" y="0" width="32" height="16" rx="1"></rect>
            </g>
            <g id="---" sketch:type="MSLayerGroup" transform="translate(34.000000, 29.000000)" fill="#979797">
                <rect id="Rectangle-18" sketch:type="MSShapeGroup" x="0" y="0" width="32" height="16" rx="1"></rect>
                <path d="M35.0031526,0 C34.4491267,0 34,0.444630861 34,1.00087166 L34,14.9991283 C34,15.5518945 34.447715,16 34.9908696,16 L63.8396968,16 C64.386939,16 64.7123964,15.5720387 64.5641519,15.0351603 L60.6790121,0.964839667 C60.5318755,0.431973433 59.9652399,0 59.4094451,0 L35.0031526,0 Z" id="Rectangle-18" sketch:type="MSShapeGroup"></path>
            </g>
        </g>
    </g>
</svg>