<?xml version="1.0" encoding="UTF-8" standalone="no"?>
<svg width="100px" height="100px" viewBox="0 0 100 100" version="1.1" xmlns="http://www.w3.org/2000/svg" xmlns:xlink="http://www.w3.org/1999/xlink" xmlns:sketch="http://www.bohemiancoding.com/sketch/ns">
    <title>discover</title>
    <description>Created with Sketch (http://www.bohemiancoding.com/sketch)</description>
    <defs></defs>
    <g id="Page-1" stroke="none" stroke-width="1" fill="none" fill-rule="evenodd" sketch:type="MSPage">
        <g id="discover" sketch:type="MSArtboardGroup">
            <path d="M50,99 C77.0619541,99 99,77.0619541 99,50 C99,22.9380459 77.0619541,1 50,1 C22.9380459,1 1,22.9380459 1,50 C1,77.0619541 22.9380459,99 50,99 Z" id="Oval-13" stroke="#979797" stroke-width="2" sketch:type="MSShapeGroup"></path>
            <path d="M11.6159004,66.6758839 L11.6159004,82.6758839 L37.8241161,82.6758839 L37.8241161,66.6758839 L11.6159004,66.6758839 Z" id="Rectangle-94" fill="#979797" sketch:type="MSShapeGroup" transform="translate(24.824116, 74.675884) rotate(-45.000000) translate(-24.824116, -74.675884) "></path>
            <path d="M24.9434176,57.7489003 C23.8700977,57.9994996 23,59.0981244 23,60.1998107 L23,75.0340498 C23,76.1370509 23.8681774,77.2226329 24.9605808,77.4634951 L39.0394192,80.5677148 C40.1222181,80.8064593 41,80.1016617 41,78.9926701 L41,56.0073299 C41,54.8987122 40.1318226,54.2027026 39.0565824,54.4537503 L24.9434176,57.7489003 Z" id="Rectangle-95" fill="#979797" sketch:type="MSShapeGroup" transform="translate(32.000000, 67.500000) rotate(-45.000000) translate(-32.000000, -67.500000) "></path>
            <rect id="Rectangle-96" fill="#979797" sketch:type="MSShapeGroup" transform="translate(57.000000, 42.000000) rotate(-45.000000) translate(-57.000000, -42.000000) " x="37" y="41" width="40" height="2" rx="4"></rect>
            <rect id="Rectangle-96" fill="#979797" sketch:type="MSShapeGroup" transform="translate(42.000000, 34.000000) rotate(-75.000000) translate(-42.000000, -34.000000) " x="27" y="33" width="30" height="2" rx="4"></rect>
            <rect id="Rectangle-96" fill="#979797" sketch:type="MSShapeGroup" transform="translate(48.000000, 40.000000) rotate(-60.000000) translate(-48.000000, -40.000000) " x="43" y="39" width="10" height="2" rx="4"></rect>
            <rect id="Rectangle-96" fill="#979797" sketch:type="MSShapeGroup" transform="translate(58.000000, 55.000000) rotate(-15.000000) translate(-58.000000, -55.000000) " x="53" y="54" width="10" height="2" rx="4"></rect>
            <rect id="Rectangle-96" fill="#979797" sketch:type="MSShapeGroup" x="48" y="61" width="30" height="2" rx="4"></rect>
        </g>
    </g>
</svg>