<?xml version="1.0" encoding="UTF-8" standalone="no"?>
<svg width="60px" height="60px" viewBox="0 0 60 60" version="1.1" xmlns="http://www.w3.org/2000/svg" xmlns:xlink="http://www.w3.org/1999/xlink" xmlns:sketch="http://www.bohemiancoding.com/sketch/ns">
    <title>interactive-design</title>
    <description>Created with Sketch (http://www.bohemiancoding.com/sketch)</description>
    <defs></defs>
    <g id="Page-1" stroke="none" stroke-width="1" fill="none" fill-rule="evenodd" sketch:type="MSPage">
        <g id="interactive-design" sketch:type="MSArtboardGroup">
            <g id="Group" sketch:type="MSLayerGroup" transform="translate(0.000000, 4.000000)">
                <path d="M1,25.1583166 L1,26.0267941 L58,26.0267941 L58,25.1583166 L1,25.1583166 Z" id="Rectangle-42" fill="#979797" sketch:type="MSShapeGroup"></path>
                <path d="M0.979374161,25.9266507 L0.979374161,26.7025128 L57.9793742,26.7025128 L57.9793742,25.9266507 L0.979374161,25.9266507 Z" id="Rectangle-42" fill="#979797" sketch:type="MSShapeGroup" transform="translate(29.622207, 25.829620) rotate(-59.000000) translate(-29.622207, -25.829620) "></path>
                <path d="M1.04903811,25.043793 L1.04903811,25.819655 L58.0490381,25.819655 L58.0490381,25.043793 L1.04903811,25.043793 Z" id="Rectangle-42" fill="#979797" sketch:type="MSShapeGroup" transform="translate(29.549038, 25.431724) rotate(-120.000000) translate(-29.549038, -25.431724) "></path>
                <circle id="Oval-18" fill="#979797" sketch:type="MSShapeGroup" cx="44.5454545" cy="1.51515152" r="1.51515152"></circle>
                <circle id="Oval-18" fill="#979797" sketch:type="MSShapeGroup" cx="15.5151515" cy="1.51515152" r="1.51515152"></circle>
                <path d="M30.5,38 C37.4035597,38 43,32.4035597 43,25.5 C43,18.5964403 37.4035597,13 30.5,13 C23.5964403,13 18,18.5964403 18,25.5 C18,32.4035597 23.5964403,38 30.5,38 Z" id="Oval-24" fill="#FFFFFF" sketch:type="MSShapeGroup"></path>
                <circle id="Oval-18" fill="#979797" sketch:type="MSShapeGroup" cx="1.51515152" cy="25.5151515" r="1.51515152"></circle>
                <circle id="Oval-18" fill="#979797" sketch:type="MSShapeGroup" cx="43.5151515" cy="25.5151515" r="1.51515152"></circle>
                <path d="M17.5151515,27.030303 C18.3519466,27.030303 19.030303,26.3519466 19.030303,25.5151515 C19.030303,24.6783564 18.3519466,24 17.5151515,24 C16.6783564,24 16,24.6783564 16,25.5151515 C16,26.3519466 16.6783564,27.030303 17.5151515,27.030303 Z" id="Oval-18" fill="#979797" sketch:type="MSShapeGroup"></path>
                <circle id="Oval-18" fill="#979797" sketch:type="MSShapeGroup" cx="23.5151515" cy="14.5151515" r="1.51515152"></circle>
                <circle id="Oval-18" fill="#979797" sketch:type="MSShapeGroup" cx="36.5151515" cy="14.5151515" r="1.51515152"></circle>
                <path d="M36.5151515,38.030303 C37.3519466,38.030303 38.030303,37.3519466 38.030303,36.5151515 C38.030303,35.6783564 37.3519466,35 36.5151515,35 C35.6783564,35 35,35.6783564 35,36.5151515 C35,37.3519466 35.6783564,38.030303 36.5151515,38.030303 Z" id="Oval-18" fill="#979797" sketch:type="MSShapeGroup"></path>
                <circle id="Oval-18" fill="#979797" sketch:type="MSShapeGroup" cx="23.5151515" cy="36.5151515" r="1.51515152"></circle>
                <path d="M15.5151515,52.030303 C16.3519466,52.030303 17.030303,51.3519466 17.030303,50.5151515 C17.030303,49.6783564 16.3519466,49 15.5151515,49 C14.6783564,49 14,49.6783564 14,50.5151515 C14,51.3519466 14.6783564,52.030303 15.5151515,52.030303 Z" id="Oval-18" fill="#979797" sketch:type="MSShapeGroup"></path>
                <path d="M58.4848485,27.030303 C59.3216436,27.030303 60,26.3519466 60,25.5151515 C60,24.6783564 59.3216436,24 58.4848485,24 C57.6480534,24 56.969697,24.6783564 56.969697,25.5151515 C56.969697,26.3519466 57.6480534,27.030303 58.4848485,27.030303 Z" id="Oval-18" fill="#979797" sketch:type="MSShapeGroup"></path>
                <circle id="Oval-18" fill="#979797" sketch:type="MSShapeGroup" cx="44.5454545" cy="50.5151515" r="1.51515152"></circle>
                <path d="M15,1.05689278 L15,1.94310722 L44,1.94310722 L44,1.05689278 L15,1.05689278 Z" id="Rectangle-45" fill="#979797" sketch:type="MSShapeGroup"></path>
                <path d="M15,50.112069 L15,50.887931 L44,50.887931 L44,50.112069 L15,50.112069 Z" id="Rectangle-45" fill="#979797" sketch:type="MSShapeGroup"></path>
                <path d="M-5.82005108,37.9950187 L-5.82005108,38.7708808 L23.1799489,38.7708808 L23.1799489,37.9950187 L-5.82005108,37.9950187 Z" id="Rectangle-45" fill="#979797" sketch:type="MSShapeGroup" transform="translate(8.549038, 38.307368) rotate(-120.000000) translate(-8.549038, -38.307368) "></path>
                <path d="M36.6859529,13.422583 L36.6859529,14.3087974 L65.6859529,14.3087974 L65.6859529,13.422583 L36.6859529,13.422583 Z" id="Rectangle-45" fill="#979797" sketch:type="MSShapeGroup" transform="translate(51.183013, 13.441343) rotate(-120.000000) translate(-51.183013, -13.441343) "></path>
                <path d="M-5.95096189,12.8642611 L-5.95096189,13.7504756 L23.0490381,13.7504756 L23.0490381,12.8642611 L-5.95096189,12.8642611 Z" id="Rectangle-45" fill="#979797" sketch:type="MSShapeGroup" transform="translate(8.549038, 13.307368) rotate(-60.000000) translate(-8.549038, -13.307368) "></path>
                <path d="M14.0263108,19.0043557 L14.0263108,19.7802178 L27.0566139,19.7802178 L27.0566139,19.0043557 L14.0263108,19.0043557 Z" id="Rectangle-45" fill="#979797" sketch:type="MSShapeGroup" transform="translate(20.549038, 19.379165) rotate(-60.000000) translate(-20.549038, -19.379165) "></path>
                <path d="M34.3923362,29.6070067 L34.3923362,30.445516 L47.4226393,30.445516 L47.4226393,29.6070067 L34.3923362,29.6070067 Z" id="Rectangle-45" fill="#979797" sketch:type="MSShapeGroup" transform="translate(41.049038, 30.513140) rotate(-60.000000) translate(-41.049038, -30.513140) "></path>
                <path d="M24,36.0807453 L24,36.9192547 L37.030303,36.9192547 L37.030303,36.0807453 L24,36.0807453 Z" id="Rectangle-45" fill="#979797" sketch:type="MSShapeGroup"></path>
                <path d="M23,14.0807453 L23,14.9192547 L36.030303,14.9192547 L36.030303,14.0807453 L23,14.0807453 Z" id="Rectangle-45" fill="#979797" sketch:type="MSShapeGroup"></path>
                <path d="M32.6830127,19.3259359 L32.6830127,20.1644452 L45.7133157,20.1644452 L45.7133157,19.3259359 L32.6830127,19.3259359 Z" id="Rectangle-45" fill="#979797" sketch:type="MSShapeGroup" transform="translate(39.683013, 19.879165) rotate(-300.000000) translate(-39.683013, -19.879165) "></path>
                <path d="M13.6830127,31.3259359 L13.6830127,32.1644452 L26.7133157,32.1644452 L26.7133157,31.3259359 L13.6830127,31.3259359 Z" id="Rectangle-45" fill="#979797" sketch:type="MSShapeGroup" transform="translate(20.683013, 31.879165) rotate(-300.000000) translate(-20.683013, -31.879165) "></path>
                <path d="M37.5490381,38.0220883 L37.5490381,38.8605976 L66.5490381,38.8605976 L66.5490381,38.0220883 L37.5490381,38.0220883 Z" id="Rectangle-45" fill="#979797" sketch:type="MSShapeGroup" transform="translate(51.683013, 38.807368) rotate(-60.000000) translate(-51.683013, -38.807368) "></path>
            </g>
        </g>
    </g>
</svg>