<?xml version="1.0" encoding="UTF-8" standalone="no"?>
<svg width="60px" height="60px" viewBox="0 0 60 60" version="1.1" xmlns="http://www.w3.org/2000/svg" xmlns:xlink="http://www.w3.org/1999/xlink" xmlns:sketch="http://www.bohemiancoding.com/sketch/ns">
    <title>strategy</title>
    <description>Created with Sketch (http://www.bohemiancoding.com/sketch)</description>
    <defs></defs>
    <g id="Page-1" stroke="none" stroke-width="1" fill="none" fill-rule="evenodd" sketch:type="MSPage">
        <g id="strategy" sketch:type="MSArtboardGroup" stroke="#979797">
            <path d="M30,5 L30,7.0145763 C24.1621209,7.18856982 22.64295,8.86173171 22.64295,8.86173171 C22.1037636,9.23814315 21.8254928,10.0662336 21.99901,10.6990292 C21.99901,10.6990292 22.8939125,13.2907269 23.5755304,19 L23.2022413,19 C23.2022413,19 21,19.9194759 21,20.3208361 C21,20.746186 23.5066215,21.8559307 23.5066215,21.8559307 C23.5066215,21.8559307 23.6383556,21.8601448 23.8717201,21.8671315 L23.8717201,21.8671315 C24.1433212,24.9469487 24.3333332,28.7059385 24.3333333,33.1955518 C24.3333332,36.6000057 23.1271523,42.0067331 21.6666667,46.5287721 C20.4918115,50.1664253 19,53.2003045 19,54.3972414 C19,55.1170919 19.1916929,55.6380183 19.4722878,56.0149426 L19.4722878,56.0149426 C19.2019784,56.0766707 19,56.3219881 19,56.6070948 L19,58.3929052 C19,58.7281944 19.2695312,59 19.6052651,59 L42.3947349,59 C42.7290136,59 43,58.7231445 43,58.3929052 L43,56.6070948 C43,56.3097771 42.7880607,56.0623782 42.5059579,56.0101556 C42.7983526,55.6337993 43.0000007,55.114307 43.000001,54.3972414 C43.0000015,53.2192904 41.5267261,50.249408 40.3333333,46.5287721 C38.8849102,42.0130285 37.6666667,36.5043316 37.6666667,33.1955518 C37.6666667,28.7032767 37.8558008,24.9452531 38.1263966,21.8674563 C38.3663592,21.8602756 38.5020385,21.8559307 38.5020385,21.8559307 C38.5020385,21.8559307 41,20.7439349 41,20.3208361 C41,19.92134 38.7911603,19 38.7911603,19 L38.4218731,19 C39.1038125,13.2764879 40.00099,10.6938102 40.00099,10.6938102 C40.1845381,10.0583926 39.9071827,9.21079457 39.3454918,8.85503491 C39.3454918,8.85503491 37.836724,7.187905 32,7.01452597 L32,7.01452597 L32,5 L33.4027615,5 C33.7326072,5 34,4.72190857 34,4.3890667 L34,3.6109333 C34,3.27352416 33.7266014,3 33.4027615,3 L32,3 L32,1.59681606 C32,1.26720365 31.7219086,1 31.3890667,1 L30.6109333,1 C30.2735242,1 30,1.26586056 30,1.59681606 L30,3 L28.5972385,3 C28.2673928,3 28,3.27809143 28,3.6109333 L28,4.3890667 C28,4.72647584 28.2733986,5 28.5972385,5 L30,5 Z" id="Rectangle-101" sketch:type="MSShapeGroup"></path>
        </g>
    </g>
</svg>