<?xml version="1.0" encoding="UTF-8" standalone="no"?>
<svg width="167px" height="25px" viewBox="0 0 167 25" version="1.1" xmlns="http://www.w3.org/2000/svg" xmlns:xlink="http://www.w3.org/1999/xlink" xmlns:sketch="http://www.bohemiancoding.com/sketch/ns">
    <!-- Generator: Sketch 3.3.1 (12002) - http://www.bohemiancoding.com/sketch -->
    <title>theron</title>
    <desc>Created with Sketch.</desc>
    <defs></defs>
    <g id="Page-1" stroke="none" stroke-width="1" fill="none" fill-rule="evenodd" sketch:type="MSPage">
        <g id="theron" sketch:type="MSLayerGroup" fill="#B1B1B1">
            <path d="M8.936,5.1 C5.588,10.176 1.7,17.988 0.872,20.94 C0.404,22.668 0.836,23.748 1.34,24.216 C1.592,24.468 1.772,24.468 1.916,24.108 C4.724,17.52 7.784,12.48 9.944,8.556 C10.916,6.792 11.168,5.604 11.132,4.74 C13.22,4.38 15.488,4.02 17.252,4.2 C17.72,4.236 17.792,3.948 17.684,3.66 C17.144,2.256 15.776,1.86 14.264,1.824 C12.212,1.752 6.236,3.084 3.032,2.832 C2.672,2.796 2.528,2.976 2.636,3.3 C3.032,4.632 4.58,5.424 6.74,5.352 C7.388,5.316 8.108,5.244 8.936,5.1 L8.936,5.1 L8.936,5.1 Z" id="Theron-Studios-Copy-4" sketch:type="MSShapeGroup"></path>
            <path d="M24.992,20.724 C25.532,19.644 25.532,18.888 25.352,18.492 C25.208,18.204 24.848,18.204 24.704,18.528 C23.588,20.832 21.608,23.424 20.132,23.496 C18.8,23.568 18.62,21.876 19.52,19.788 C20.348,17.916 22.076,15.288 22.868,13.704 C23.804,11.868 22.688,10.068 21.464,9.924 C20.492,9.816 18.62,11.004 17.144,12.444 C18.692,10.032 20.6,7.116 21.464,5.676 C22.832,3.408 22.94,1.608 22.472,0.564 C22.292,0.132 21.932,0.096 21.608,0.528 C18.692,4.164 11.204,16.836 9.944,20.436 C9.188,22.596 9.512,23.604 10.088,24.252 C10.304,24.504 10.556,24.432 10.7,24.108 C11.564,21.912 12.896,19.392 14.192,17.268 C16.28,13.848 20.204,11.4 20.708,11.688 C21.284,12.012 18.152,15.756 16.964,19.248 C15.884,22.38 16.64,24.576 19.664,24.576 C21.788,24.576 23.984,22.776 24.992,20.724 L24.992,20.724 L24.992,20.724 Z" id="Path" sketch:type="MSShapeGroup"></path>
            <path d="M48.212,20.832 C48.644,19.824 48.572,18.888 48.392,18.492 C48.248,18.168 47.996,18.24 47.852,18.528 C46.7,21.192 44.864,23.568 43.352,23.496 C42.272,23.46 41.84,22.02 42.452,20.04 C43.064,18.096 44.9,15.648 46.592,13.776 C47.672,12.588 46.772,10.86 46.052,10.068 C45.8,9.708 45.476,9.888 45.044,10.176 C43.64,11.112 42.38,11.688 41.12,11.868 C42.02,9.528 42.38,7.332 41.264,7.368 C39.752,7.44 36.224,12.228 38.996,13.38 C37.016,17.952 33.056,23.64 29.096,23.46 C27.26,23.388 26.36,21.048 27.512,17.772 C30.032,19.788 32.444,18.888 34.136,16.692 C35.576,14.856 35.936,12.732 35.324,11.868 C34.748,11.076 34.1,10.572 33.2,10.032 C31.4,8.988 27.728,11.004 25.46,15.468 C23.12,20.076 24.668,24.54 29.24,24.468 C33.524,24.396 37.412,19.86 40.4,13.596 C41.516,13.596 43.136,13.236 44.72,12.228 C43.172,13.956 41.012,16.62 40.256,19.032 C39.356,21.948 40.436,24.396 43.172,24.54 C45.152,24.648 47.312,22.992 48.212,20.832 L48.212,20.832 Z M27.836,16.98 C27.944,16.8 28.016,16.548 28.124,16.368 C29.78,13.056 32.732,10.788 33.524,11.472 C33.992,11.868 33.236,13.74 32.084,15.216 C31.004,16.584 29.6,18.06 27.836,16.98 L27.836,16.98 Z" id="Path" sketch:type="MSShapeGroup"></path>
            <path d="M75.104,20.796 C75.644,19.68 75.644,18.96 75.464,18.528 C75.356,18.24 74.996,18.24 74.852,18.528 C73.448,21.12 71.756,23.46 70.316,23.496 C68.948,23.532 68.768,21.912 69.704,19.86 C70.568,17.988 72.26,15.396 73.052,13.776 C73.952,11.94 72.836,10.104 71.648,9.96 C70.424,9.816 68.048,11.76 66.428,13.452 C66.824,12.192 66.824,10.968 66.284,10.068 C66.068,9.744 65.78,9.744 65.528,10.14 C63.584,13.092 61.244,15.72 58.976,15.756 C59.012,15.54 59.012,15.288 59.012,15.108 C59.228,12.516 58.148,12.3 57.284,11.148 C56.564,10.176 55.952,9.852 54.872,9.96 C52.712,10.14 50.552,12.192 49.148,14.64 C47.528,17.448 46.988,20.616 48.572,22.74 C49.976,24.648 51.812,24.684 53.108,24.252 C55.772,23.388 58.076,19.68 58.796,16.62 C60.056,16.692 61.172,16.368 62.144,15.72 C61.064,17.628 60.272,19.5 59.876,20.616 C59.264,22.416 59.516,23.568 60.164,24.288 C60.488,24.648 60.74,24.432 60.848,24.18 C62.324,20.796 64.016,17.34 66.104,15.072 C68.408,12.552 70.424,11.616 70.856,11.76 C71.468,11.976 68.336,15.792 67.112,19.32 C66.068,22.38 66.824,24.612 69.812,24.612 C71.936,24.612 74.132,22.812 75.104,20.796 L75.104,20.796 Z M56.456,16.08 C56.168,16.98 55.736,17.988 55.124,19.14 C53.396,22.38 51.164,23.64 50.192,22.848 C49.22,22.056 49.724,18.708 51.308,16.008 C52.1,14.676 53.108,13.416 54.116,12.588 C54.152,13.992 55.196,15.396 56.456,16.08 L56.456,16.08 Z" id="Path" sketch:type="MSShapeGroup"></path>
            <path d="M56.708,15.108 C55.988,14.532 55.736,13.488 55.844,12.696 C55.988,11.652 56.744,11.436 56.924,12.588 C57.032,13.236 56.924,14.1 56.708,15.108 L56.708,15.108 L56.708,15.108 Z" id="Path" sketch:type="MSShapeGroup"></path>
            <path d="M81.116,19.176 C80.792,19.284 80.648,19.536 81.044,20.004 C86.12,26.124 92.384,25.44 94.544,22.956 C96.128,21.12 96.308,19.464 94.94,18.492 C92.924,17.052 88.316,15.144 88.424,12.804 C88.604,8.304 97.46,2.796 98.684,4.056 C99.548,4.956 96.848,7.944 96.092,9.672 C95.336,11.364 95.768,12.48 96.452,13.164 C96.848,13.56 97.064,13.38 97.244,13.056 C97.748,12.156 98.792,10.32 99.728,9.06 C100.268,8.304 101.132,6.9 100.772,5.46 C100.52,4.452 99.872,3.264 98.972,2.436 C97.784,1.356 96.056,1.644 94.328,2.364 C91.124,3.732 85.544,7.944 85.544,12.876 C85.544,16.584 91.232,18.816 93.14,20.436 C93.644,20.868 93.824,21.624 93.212,22.308 C92.744,22.704 91.988,22.956 90.98,22.956 C88.64,22.956 86.192,21.084 84.752,19.932 C83.78,19.14 82.304,18.816 81.116,19.176 L81.116,19.176 L81.116,19.176 Z" id="Path" sketch:type="MSShapeGroup"></path>
            <path d="M103.508,9.996 C101.96,12.84 100.448,15.864 99.692,17.664 C97.964,21.804 99.872,24.468 102.248,24.54 C105.128,24.648 107.504,21.48 107.972,20.436 C108.332,19.608 108.512,18.96 108.332,18.384 C108.188,17.88 107.792,17.952 107.576,18.384 C106.244,21.084 104.192,23.64 102.572,23.568 C101.06,23.496 100.664,21.264 101.852,18.636 C103.22,15.612 105.272,12.12 106.676,9.708 C107.576,9.564 108.692,9.456 109.484,9.564 C110.024,9.564 110.168,9.312 109.916,8.88 C109.628,8.412 109.088,7.764 107.684,7.8 C108.548,5.928 108.548,4.74 108.152,3.732 C107.972,3.3 107.612,3.264 107.288,3.732 C106.676,4.524 105.668,6.216 104.552,8.196 C103.58,8.304 102.572,8.376 101.564,8.34 C101.024,8.304 100.808,8.556 101.168,9.06 C101.456,9.456 102.284,9.996 103.508,9.996 L103.508,9.996 L103.508,9.996 Z" id="Path" sketch:type="MSShapeGroup"></path>
            <path d="M113.408,21.084 C113.12,23.172 114.056,24.648 116.396,24.648 C118.52,24.648 120.752,22.812 121.796,20.796 C122.3,19.788 122.264,18.816 122.12,18.528 C121.976,18.204 121.652,18.24 121.472,18.564 C120.068,21.084 118.232,23.46 116.72,23.532 C115.424,23.604 115.28,22.092 116.216,20.04 C117.044,18.204 118.844,15.504 119.636,13.884 C120.5,12.084 120.212,10.5 119.672,9.852 C119.384,9.492 119.132,9.564 118.772,10.068 C117.62,11.616 116.576,14.1 114.308,17.772 C112.364,20.904 110.384,23.424 108.98,23.316 C108.152,23.244 108.044,21.948 108.8,20.184 C109.556,18.456 110.276,17.016 111.608,14.892 C112.904,12.84 113.084,11.22 112.292,10.032 C112.004,9.708 111.644,9.672 111.356,10.068 C109.016,13.344 107.18,16.872 106.388,19.248 C105.596,21.624 105.668,24.288 108.224,24.468 C110.24,24.612 112.148,22.776 113.408,21.084 L113.408,21.084 L113.408,21.084 Z" id="Path" sketch:type="MSShapeGroup"></path>
            <path d="M130.868,20.112 C132.668,16.296 136.124,10.356 137.852,7.26 C139.364,4.56 139.472,3.012 138.968,1.824 C138.788,1.356 138.464,1.32 138.104,1.824 C136.808,3.66 134.072,8.556 132.128,12.264 C132.164,10.932 131.444,9.816 129.968,9.816 C128.168,9.816 125.288,11.436 122.444,15.612 C119.492,19.932 120.14,24.504 123.488,24.504 C125.18,24.504 126.8,23.172 127.952,21.732 C127.952,23.424 128.924,24.504 130.868,24.612 C132.848,24.72 135.08,22.812 136.052,20.832 C136.52,19.86 136.484,18.924 136.34,18.6 C136.196,18.312 135.944,18.312 135.764,18.636 C134.504,21.12 132.56,23.532 131.084,23.604 C129.86,23.676 129.896,22.2 130.868,20.112 L130.868,20.112 Z M130.544,11.652 C131.588,11.688 131.048,13.956 128.96,17.952 C127.268,21.228 125.324,23.352 123.884,23.316 C122.48,23.28 122.876,20.148 124.82,17.052 C126.8,13.884 129.428,11.616 130.544,11.652 L130.544,11.652 Z" id="Path" sketch:type="MSShapeGroup"></path>
            <path d="M143.684,7.476 C143.216,6.504 142.172,6.072 141.596,6.684 C141.02,7.296 140.84,8.376 141.416,9.348 C141.956,10.284 142.964,10.392 143.432,9.888 C143.9,9.384 144.152,8.412 143.684,7.476 L143.684,7.476 L143.684,7.476 Z" id="Path" sketch:type="MSShapeGroup"></path>
            <path d="M137.816,24.54 C139.832,24.54 142.1,23.028 143.18,20.796 C143.612,19.896 143.72,19.14 143.432,18.564 C143.288,18.276 143.036,18.24 142.856,18.564 C141.776,21.048 139.796,23.424 138.176,23.496 C137.024,23.568 136.952,22.164 137.816,20.076 C138.572,18.276 140.084,15.828 140.84,14.244 C141.704,12.444 141.416,10.896 140.876,10.32 C140.588,9.996 140.336,10.104 140.012,10.536 C138.68,12.408 136.304,16.656 135.404,19.284 C134.396,22.236 135.08,24.54 137.816,24.54 L137.816,24.54 L137.816,24.54 Z" id="Path" sketch:type="MSShapeGroup"></path>
            <path d="M154.88,16.26 C155.024,16.08 155.024,15.9 154.772,15.9 C154.484,15.9 154.268,15.972 154.052,15.972 C154.088,15.684 154.088,15.432 154.124,15.144 C154.34,12.552 153.26,12.3 152.432,11.184 C151.712,10.212 151.1,9.888 149.984,9.96 C147.824,10.104 145.628,12.192 144.26,14.64 C142.64,17.52 142.1,20.652 143.684,22.74 C145.124,24.612 146.924,24.756 148.22,24.324 C150.884,23.424 153.152,19.788 153.908,16.728 C154.268,16.692 154.628,16.548 154.88,16.26 L154.88,16.26 Z M151.532,16.26 C151.244,17.124 150.812,18.132 150.272,19.14 C148.508,22.452 146.312,23.712 145.304,22.884 C144.368,22.092 144.908,18.78 146.42,16.044 C147.176,14.676 148.22,13.488 149.192,12.66 C149.228,13.992 150.092,15.252 150.848,15.828 C151.064,16.008 151.28,16.152 151.532,16.26 L151.532,16.26 Z" id="Path" sketch:type="MSShapeGroup"></path>
            <path d="M151.784,15.288 C151.208,14.748 150.812,13.704 150.992,12.732 C151.172,11.688 151.892,11.472 152.072,12.624 C152.18,13.272 152.072,14.172 151.784,15.288 L151.784,15.288 L151.784,15.288 Z" id="Path" sketch:type="MSShapeGroup"></path>
            <path d="M155.924,18.096 C155.888,17.808 155.888,17.52 155.852,17.232 C155.816,16.656 155.528,16.512 155.096,16.872 C153.872,17.88 153.764,20.256 154.628,21.876 C155.852,24.108 157.868,24.648 159.956,24.576 C162.512,24.468 164.96,23.1 166.328,20.616 C166.94,19.5 166.976,18.564 166.832,18.24 C166.688,17.952 166.328,17.844 166.148,18.24 C165.248,20.184 163.736,22.344 161.324,23.244 C162.62,22.38 162.872,20.868 162.944,19.464 C163.052,16.98 162.368,14.172 162.62,10.86 C162.764,10.608 162.872,10.392 163.016,10.176 C163.484,9.348 163.664,8.952 163.304,8.592 C162.98,8.268 162.152,8.412 161.36,9.132 C160.604,9.816 160.244,10.5 160.064,11.904 C159.02,13.74 157.4,16.08 155.924,18.096 L155.924,18.096 Z M159.992,14.208 C160.136,17.088 160.676,22.74 159.02,23.244 C157.832,23.604 156.788,22.128 156.248,20.04 C157.616,18.096 158.948,16.116 159.992,14.208 L159.992,14.208 Z" id="Path" sketch:type="MSShapeGroup"></path>
        </g>
    </g>
</svg>