<?xml version="1.0" encoding="UTF-8" standalone="no"?>
<svg width="114px" height="20px" viewBox="0 0 114 20" version="1.1" xmlns="http://www.w3.org/2000/svg" xmlns:xlink="http://www.w3.org/1999/xlink" xmlns:sketch="http://www.bohemiancoding.com/sketch/ns">
    <!-- Generator: Sketch 3.0.4 (8053) - http://www.bohemiancoding.com/sketch -->
    <title>Artboard 2</title>
    <desc>Created with Sketch.</desc>
    <defs></defs>
    <g id="Page-2" stroke="none" stroke-width="1" fill="none" fill-rule="evenodd" sketch:type="MSPage">
        <g id="Artboard-2" sketch:type="MSArtboardGroup">
            <g id="Theron-3" sketch:type="MSLayerGroup">
                <path d="M79.9781572,0.378681627 C79.3506063,0.378681627 78.591129,0.814143954 78.273697,1.36541582 L73.9071704,8.9485933 C73.5933739,9.49355155 73.5897384,10.3707898 73.9071704,10.9220617 L78.273697,18.5052392 C78.5874935,19.0501974 79.3433471,19.4919734 79.9781827,19.4919734 L88.7108448,19.4919734 C89.3384098,19.4919734 90.0978817,19.056511 90.4152924,18.5052392 L94.7815257,10.9220617 C95.0953011,10.3771034 95.0989252,9.49986517 94.7815003,8.9485933 L90.4150715,1.36541582 C90.101282,0.820457574 89.3454453,0.378681627 88.7106239,0.378681627 L79.9781572,0.378681627 Z M84.3443906,15.305666 C81.4075894,15.305666 79.0267422,12.9064515 79.0267422,9.94699405 C79.0267422,6.98766075 81.4078358,4.58844619 84.3443906,4.58844619 C87.2810686,4.58844619 89.662039,6.98766075 89.662039,9.94699405 C89.6619158,12.9063273 87.2811917,15.305666 84.3443906,15.305666 L84.3443906,15.305666 Z" id="Round-2" fill="#F1412F" sketch:type="MSShapeGroup"></path>
                <path d="M56.7959912,19.4339623 L56.7959912,0.4309773 L64.710957,0.4309773 C65.7476126,0.4309773 66.6815225,0.563134365 67.5127148,0.827452462 C68.3439072,1.09177056 69.0560135,1.48592321 69.6490552,2.00992224 C70.2420969,2.53392128 70.7020475,3.18543243 71.0289209,3.96447524 C71.3557943,4.74351805 71.5192285,5.64311351 71.5192285,6.66328862 C71.5192285,7.91532171 71.2413903,9.00271932 70.6857056,9.92551408 C70.1300208,10.8483088 69.3898972,11.5879247 68.4653125,12.1443838 L72.5698877,19.4339623 L67.1204688,19.4339623 L63.8844385,12.965157 L61.7551025,12.965157 L61.7551025,19.4339623 L56.7959912,19.4339623 Z M61.7551025,9.00040537 L64.2206494,9.00040537 C64.8930747,9.00040537 65.439412,8.7963734 65.8596777,8.38830336 C66.2799435,7.98023332 66.4900732,7.43769378 66.4900732,6.76066848 C66.4900732,6.03727159 66.2892826,5.46690952 65.8876953,5.04956515 C65.486108,4.63222079 64.9210925,4.42355174 64.1926318,4.42355174 L61.7551025,4.42355174 L61.7551025,9.00040537 Z" id="Path" fill="#FFFFFF" sketch:type="MSShapeGroup"></path>
                <path d="M97.0450049,19.4339623 L97.0450049,0.4309773 L101.667905,0.4309773 L109.008511,11.0314711 L109.008511,0.4309773 L114.023657,0.4309773 L114.023657,19.4339623 L109.694941,19.4339623 L102.060151,8.52741745 L102.060151,19.4339623 L97.0450049,19.4339623 Z" id="Path" fill="#FFFFFF" sketch:type="MSShapeGroup"></path>
                <path d="M39.7893213,19.4339623 L39.7893213,0.4309773 L53.5599609,0.4309773 L53.5599609,4.78524838 L44.8605029,4.78524838 L44.8605029,7.72055572 L52.0049854,7.72055572 L52.0049854,11.8244214 L44.8605029,11.8244214 L44.8605029,15.0796912 L54.1623389,15.0796912 L54.1623389,19.4339623 L39.7893213,19.4339623 Z" id="Path" fill="#FFFFFF" sketch:type="MSShapeGroup"></path>
                <path d="M19.1403662,19.4339623 L19.1403662,0.4309773 L24.2115479,0.4309773 L24.2115479,7.3866819 L31.2719775,7.3866819 L31.2719775,0.4309773 L36.357168,0.4309773 L36.357168,19.4339623 L31.2719775,19.4339623 L31.2719775,11.9913583 L24.2115479,11.9913583 L24.2115479,19.4339623 L19.1403662,19.4339623 Z" id="Path" fill="#FFFFFF" sketch:type="MSShapeGroup"></path>
                <path d="M0.00436035156,4.84089402 L0.00436035156,0.4309773 L16.8429248,0.4309773 L16.8429248,4.84089402 L11.0152686,4.84089402 L11.0152686,19.4339623 L5.88805176,19.4339623 L5.88805176,4.84089402 L0.00436035156,4.84089402 Z" id="Path" fill="#FFFFFF" sketch:type="MSShapeGroup"></path>
            </g>
        </g>
    </g>
</svg>