<?xml version="1.0" encoding="UTF-8" standalone="no"?>
<svg width="200px" height="30px" viewBox="0 0 200 30" version="1.1" xmlns="http://www.w3.org/2000/svg" xmlns:xlink="http://www.w3.org/1999/xlink" xmlns:sketch="http://www.bohemiancoding.com/sketch/ns">
    <!-- Generator: Sketch 3.3 (11970) - http://www.bohemiancoding.com/sketch -->
    <title>Theron Studios Copy</title>
    <desc>Created with Sketch.</desc>
    <defs></defs>
    <g id="Logo" stroke="none" stroke-width="1" fill="none" fill-rule="evenodd" sketch:type="MSPage">
        <g id="Theron-Studios-Copy" sketch:type="MSLayerGroup" fill="#252429">
            <path d="M195.674667,24.8053913 C195.674667,22.2768696 193.434667,21.3333913 193.434667,20.088 C193.434667,19.3332174 194.181333,18.9935652 195.562667,18.5029565 C198.026667,17.6349565 199.184,16.8046957 199.184,15.4838261 C199.184,14.9932174 198.96,14.1252174 198.138667,13.0685217 C197.578667,12.3514783 197.168,12.2382609 196.944,12.4269565 C194.48,14.012 190.410667,14.4648696 190.410667,17.9746087 C190.410667,20.2389565 192.576,20.8050435 192.576,22.1636522 C192.576,24.0506087 189.328,26.2394783 187.162667,26.9565217 C186.789333,27.0697391 186.938667,27.6358261 187.610667,28.2396522 C188.432,28.9566957 189.365333,29.4095652 190.634667,29.4095652 C191.866667,29.4095652 192.837333,28.9566957 193.658667,28.3528696 C195.04,27.2961739 195.674667,26.0507826 195.674667,24.8053913 L195.674667,24.8053913 Z" id="Path" sketch:type="MSShapeGroup"></path>
            <path d="M179.024,27.9 C181.898667,27.9 184.624,25.8243478 186.416,22.692 C186.826667,21.9749565 187.2,21.1824348 187.461333,20.389913 C190.448,20.1257391 192.912,18.1633043 194.218667,16.5027826 L194.368,16.314087 C194.554667,16.0876522 194.554667,15.8989565 194.405333,15.6725217 L194.330667,15.5593043 C194.218667,15.4083478 194.106667,15.3706087 193.808,15.6725217 L193.658667,15.8234783 C192.053333,17.4462609 190.336,18.6161739 187.872,18.8048696 C187.909333,18.5029565 187.946667,18.2010435 187.946667,17.8991304 C187.946667,16.5405217 187.461333,15.4083478 186.453333,14.9932174 C185.968,14.2384348 184.512,13.4836522 183.28,13.4836522 C180.741333,13.4836522 177.568,15.9744348 175.701333,18.5029565 C173.386667,21.5975652 173.722667,24.3902609 175.365333,26.2017391 C176.373333,27.2584348 177.418667,27.9 179.024,27.9 Z M180.069333,21.5598261 C181.002667,20.0502609 182.085333,18.7671304 183.130667,17.785913 C183.130667,18.8048696 183.765333,19.8615652 185.333333,20.2389565 C183.914667,22.4655652 181.450667,24.5789565 178.949333,25.2205217 C178.762667,24.126087 179.248,22.8429565 180.069333,21.5598261 Z M184.736,16.8801739 C184.736,16.7292174 184.773333,16.616 184.773333,16.5405217 C185.184,16.2763478 185.557333,16.1253913 185.893333,16.0121739 C186.229333,16.1253913 186.416,16.5405217 186.416,17.0688696 C186.416,17.5594783 186.304,18.0878261 186.117333,18.653913 C185.109333,18.352 184.736,17.6726957 184.736,16.8801739 Z" id="Path" sketch:type="MSShapeGroup"></path>
            <path d="M167.749333,27.8622609 C170.549333,27.8622609 174.805333,23.258087 176.485333,20.4276522 L176.597333,20.2389565 C176.746667,19.9747826 176.784,19.786087 176.522667,19.521913 L176.410667,19.4086957 C176.298667,19.2954783 176.224,19.3332174 175.962667,19.6728696 L175.850667,19.8238261 C172.602667,24.2015652 170.250667,25.296 168.496,25.4469565 C168.944,24.0883478 170.176,22.0881739 172.229333,19.1445217 C173.536,17.2953043 174.282667,15.9744348 174.282667,15.2196522 C174.282667,13.7855652 171.930667,13.5968696 170.997333,13.5968696 C170.698667,13.5968696 170.549333,13.6723478 170.4,13.8610435 C169.578667,14.8045217 167.712,17.4085217 166.144,19.8238261 C163.344,24.2015652 163.418667,25.0695652 165.098667,26.6168696 C166.144,27.4848696 166.666667,27.8622609 167.749333,27.8622609 L167.749333,27.8622609 Z" id="Path" sketch:type="MSShapeGroup"></path>
            <path d="M173.498667,10.6532174 C173.76,10.841913 174.544,11.0683478 175.066667,11.0683478 C175.626667,11.0683478 176.149333,10.9928696 176.746667,10.3135652 C177.194667,9.86069565 178.277333,8.84173913 179.248,7.86052174 C179.546667,7.5586087 179.36,7.33217391 178.986667,7.03026087 C178.576,6.65286957 177.642667,6.16226087 176.858667,5.93582609 C176.56,5.86034783 176.224,6.08678261 175.664,6.72834783 C174.917333,7.5586087 174.058667,8.76626087 173.498667,9.97391304 C173.349333,10.3135652 173.349333,10.54 173.498667,10.6532174 L173.498667,10.6532174 Z" id="Path" sketch:type="MSShapeGroup"></path>
            <path d="M154.944,25.4092174 C155.354667,26.465913 156.138667,27.333913 157.221333,27.333913 C159.685333,27.333913 161.888,25.4846957 162.746667,24.2770435 C163.008,23.9373913 163.045333,23.7109565 163.045333,23.56 C163.045333,23.4090435 163.008,23.1071304 162.970667,22.993913 C162.933333,22.9184348 162.821333,22.9184348 162.746667,22.993913 C162,23.7864348 161.029333,24.3525217 160.096,24.6921739 C160.058667,22.4278261 161.552,19.4464348 164.725333,14.2006957 C166.592,11.106087 168.72,7.82278261 170.176,5.63391304 C171.146667,4.12434783 171.072,2.91669565 170.4,2.27513043 C169.765333,1.67130435 168.981333,0.95426087 168.421333,0.539130435 C168.16,0.350434783 167.898667,0.388173913 167.637333,0.727826087 C165.285333,3.89791304 161.104,10.3135652 158.378667,14.6913043 C157.669333,13.8987826 156.773333,13.3704348 156.026667,13.3704348 C153.824,13.3704348 149.754667,15.5215652 146.992,19.22 C145.872,20.6918261 145.424,22.0504348 145.424,23.1826087 C145.424,24.6544348 146.282667,25.7488696 147.029333,26.3149565 C147.850667,27.333913 148.597333,27.7867826 149.381333,27.7867826 C150.912,27.7867826 152.890667,26.2394783 154.794667,23.9751304 C154.757333,24.5412174 154.794667,25.0695652 154.944,25.4092174 Z M149.829333,25.0695652 C149.68,22.2768696 153.226667,17.9746087 157.296,16.4273043 C156.437333,17.9746087 155.802667,19.4464348 155.392,20.8050435 C153.674667,22.8052174 151.733333,24.3525217 149.829333,25.0695652 Z" id="Path" sketch:type="MSShapeGroup"></path>
            <path d="M138.442667,26.3149565 C139.04,26.730087 139.712,27.0697391 140.421333,27.0697391 C143.408,27.0697391 146.992,22.6165217 148.298667,20.4276522 L148.410667,20.2389565 C148.56,20.0125217 148.597333,19.786087 148.336,19.521913 L148.224,19.4086957 C148.112,19.2954783 148.037333,19.3332174 147.776,19.6728696 L147.664,19.8238261 C145.013333,23.4090435 143.221333,24.5412174 141.84,24.6921739 C142.101333,22.5033043 144.490667,18.918087 145.2,17.484 C145.909333,16.0876522 145.573333,15.4838261 143.968,15.2573913 C143.221333,15.1441739 141.989333,15.0309565 141.541333,15.0309565 C141.242667,15.0309565 141.056,15.181913 140.832,15.6347826 C137.584,22.0126957 134.709333,24.126087 133.141333,24.428 C134,22.5033043 135.605333,20.9182609 137.733333,17.2953043 C138.554667,15.8989565 138.853333,14.4271304 137.434667,13.9365217 C136.650667,13.6723478 135.232,13.4836522 134.709333,13.4836522 C134.224,13.4836522 134,13.710087 133.738667,14.2006957 C133.477333,14.7290435 132.133333,16.616 129.744,19.8238261 C128.288,21.7862609 127.616,23.258087 127.616,24.428 C127.616,25.3714783 127.952,26.1262609 129.072,26.9187826 C129.968,27.5226087 130.677333,27.8245217 131.424,27.8245217 C133.029333,27.8245217 135.12,26.1262609 137.248,23.4090435 C136.986667,24.5412174 137.248,25.4846957 138.442667,26.3149565 L138.442667,26.3149565 Z" id="Path" sketch:type="MSShapeGroup"></path>
            <path d="M120.896,27.9 C124.256,27.9 129.072,22.6165217 130.378667,20.4276522 L130.490667,20.2389565 C130.64,19.9747826 130.677333,19.786087 130.416,19.521913 L130.304,19.4086957 C130.192,19.2954783 130.117333,19.3332174 129.856,19.6728696 L129.744,19.8238261 C127.018667,23.5222609 124.666667,24.994087 121.754667,25.1827826 C122.016,23.8241739 123.621333,21.1824348 127.765333,14.7667826 L129.706667,14.313913 C131.088,13.9742609 131.125333,13.7478261 131.573333,13.6723478 C132.021333,13.5968696 132.357333,13.2194783 132.357333,12.8043478 C132.357333,12.6533913 132.32,12.5401739 131.946667,12.5401739 C131.2,12.5401739 130.229333,12.577913 129.146667,12.6156522 C131.461333,8.99269565 131.797333,8.12469565 130.229333,6.80382609 C129.557333,6.2 129.370667,5.59617391 128.848,5.59617391 C128.549333,5.59617391 128.101333,5.89808696 126.981333,7.40765217 C125.562667,9.2946087 124.293333,11.106087 122.912,13.144 C121.904,13.2572174 120.896,13.4081739 120,13.5213913 C119.402667,13.5968696 119.290667,13.710087 119.290667,13.8610435 C119.290667,14.1629565 119.701333,14.9177391 120.186667,15.3706087 C120.485333,15.6347826 120.672,15.748 121.157333,15.748 C120.373333,16.9933913 119.514667,18.3142609 118.544,19.8238261 C116.154667,23.5222609 116.341333,25.1073043 117.946667,26.6168696 C118.992,27.6358261 120.074667,27.9 120.896,27.9 L120.896,27.9 Z" id="Path" sketch:type="MSShapeGroup"></path>
            <path d="M109.882667,16.8424348 C111.152,17.7481739 111.712,18.3897391 111.712,19.4464348 C111.712,21.8617391 107.344,24.3902609 99.5413333,25.6733913 C98.8693333,25.7866087 98.832,26.7678261 100.4,28.3528696 C101.370667,29.334087 102.229333,29.9001739 103.536,29.9001739 C105.178667,29.9001739 108.277333,29.069913 111.413333,27.0697391 C113.765333,25.5601739 115.333333,23.6354783 115.333333,21.5598261 C115.333333,19.0313043 113.392,17.4085217 111.376,15.9366957 C110.181333,15.0686957 109.546667,14.4648696 109.546667,13.6346087 C109.546667,12.3514783 110.816,10.6909565 115.557333,8.38886957 C118.32,7.068 121.792,5.74713043 125.674667,4.69043478 C126.048,4.57721739 126.048,3.9733913 125.152,2.80347826 C124.144,1.44486957 123.285333,0.878782609 121.829333,0.878782609 C119.701333,0.878782609 115.109333,2.50156522 111.376,4.91686957 C108.165333,6.99252174 106.074667,9.14365217 106.074667,12.1250435 C106.074667,14.2761739 107.829333,15.3706087 109.882667,16.8424348 L109.882667,16.8424348 Z" id="Path" sketch:type="MSShapeGroup"></path>
            <path d="M86.9226667,28.0509565 C88.7146667,28.0509565 91.5146667,26.3904348 93.3066667,24.8431304 C93.68,24.5034783 93.7546667,23.9751304 93.7546667,23.5222609 C93.7546667,23.258087 93.6426667,23.1448696 93.4186667,23.2958261 C91.328,24.7676522 89.6853333,25.296 88.976,25.296 C88.8266667,25.296 88.7146667,25.2582609 88.6026667,25.2205217 C89.7973333,22.7297391 91.552,20.5408696 92.448,18.6161739 C93.232,16.917913 93.0826667,15.9366957 92.336,15.4083478 C91.4773333,14.7667826 90.8426667,14.4648696 90.3946667,14.4648696 C89.984,14.4648696 89.4613333,14.6535652 88.6773333,15.1441739 C87.8186667,15.6725217 86.624,16.6537391 85.168,18.0123478 C85.6533333,16.9556522 85.9146667,16.2386087 85.9146667,15.8234783 C85.9146667,15.1441739 85.6533333,14.9177391 84.6453333,14.2006957 C84.0106667,13.7478261 83.264,13.4081739 82.8533333,13.4081739 C82.1066667,13.4081739 81.2853333,14.4648696 77.2906667,19.8238261 C75.3866667,22.390087 74.528,24.1638261 74.528,25.3337391 C74.528,26.1262609 75.0506667,26.6923478 75.7973333,26.8810435 C76.6933333,27.1074783 77.552,27.4093913 78.0373333,27.4093913 C78.4106667,27.4093913 78.8586667,27.0697391 79.568,26.0885217 C82.6666667,21.7107826 85.28,19.3709565 87.2213333,18.2010435 C86.6986667,19.5973913 85.1306667,21.3711304 83.9733333,24.0128696 C83.6373333,24.8431304 83.6373333,25.7488696 84.16,26.5791304 C84.608,27.2961739 85.728,28.0509565 86.9226667,28.0509565 L86.9226667,28.0509565 Z" id="Path" sketch:type="MSShapeGroup"></path>
            <path d="M65.7173333,27.9 C68.592,27.9 71.3173333,25.8243478 73.1093333,22.692 C73.52,21.9749565 73.8933333,21.1824348 74.1546667,20.389913 C77.1413333,20.1257391 79.6053333,18.1633043 80.912,16.5027826 L81.0613333,16.314087 C81.248,16.0876522 81.248,15.8989565 81.0986667,15.6725217 L81.024,15.5593043 C80.912,15.4083478 80.8,15.3706087 80.5013333,15.6725217 L80.352,15.8234783 C78.7466667,17.4462609 77.0293333,18.6161739 74.5653333,18.8048696 C74.6026667,18.5029565 74.64,18.2010435 74.64,17.8991304 C74.64,16.5405217 74.1546667,15.4083478 73.1466667,14.9932174 C72.6613333,14.2384348 71.2053333,13.4836522 69.9733333,13.4836522 C67.4346667,13.4836522 64.2613333,15.9744348 62.3946667,18.5029565 C60.08,21.5975652 60.416,24.3902609 62.0586667,26.2017391 C63.0666667,27.2584348 64.112,27.9 65.7173333,27.9 Z M71.4293333,16.8801739 C71.4293333,16.7292174 71.4666667,16.616 71.4666667,16.5405217 C71.8773333,16.2763478 72.2506667,16.1253913 72.5866667,16.0121739 C72.9226667,16.1253913 73.1093333,16.5405217 73.1093333,17.0688696 C73.1093333,17.5594783 72.9973333,18.0878261 72.8106667,18.653913 C71.8026667,18.352 71.4293333,17.6726957 71.4293333,16.8801739 Z M66.7626667,21.5598261 C67.696,20.0502609 68.7786667,18.7671304 69.824,17.785913 C69.824,18.8048696 70.4586667,19.8615652 72.0266667,20.2389565 C70.608,22.4655652 68.144,24.5789565 65.6426667,25.2205217 C65.456,24.126087 65.9413333,22.8429565 66.7626667,21.5598261 Z" id="Path" sketch:type="MSShapeGroup"></path>
            <path d="M51.5306667,27.4848696 C51.9413333,27.4848696 52.2773333,27.1829565 53.7706667,24.9186087 C57.3546667,19.4086957 61.8346667,15.0686957 65.6053333,12.6911304 C65.7173333,12.6156522 65.792,12.5401739 65.792,12.4646957 C65.792,12.3892174 65.568,12.2382609 65.456,12.1250435 C65.1946667,11.8986087 65.12,11.709913 64.8213333,11.709913 C64.5226667,11.709913 64,11.8986087 63.1786667,12.3137391 C61.4986667,13.1062609 59.5946667,14.4271304 57.4666667,16.3895652 C57.616,15.8612174 57.6906667,15.3706087 57.6906667,14.9554783 C57.6906667,14.4271304 57.5413333,13.9742609 57.0933333,13.710087 C56.5706667,13.4081739 56.1226667,13.3704348 55.488,13.144 C55.264,13.0685217 54.9653333,13.0685217 54.8533333,13.3326957 C54.2933333,14.4271304 51.8666667,17.8991304 50.4106667,19.8238261 C48.544,22.2768696 47.8346667,24.0506087 47.8346667,25.1450435 C47.8346667,26.3904348 48.8053333,26.730087 49.9253333,27.032 C50.9706667,27.333913 51.2693333,27.4848696 51.5306667,27.4848696 L51.5306667,27.4848696 Z" id="Path" sketch:type="MSShapeGroup"></path>
            <path d="M51.0453333,20.4276522 L51.1573333,20.2389565 C51.3066667,19.9747826 51.344,19.786087 51.0826667,19.521913 L50.9706667,19.4086957 C50.8586667,19.2954783 50.784,19.3332174 50.5226667,19.6728696 L50.4106667,19.8238261 C47.7973333,23.3335652 43.728,25.6356522 40.928,25.6356522 C40.4426667,25.6356522 40.032,25.5601739 39.696,25.3714783 C39.5466667,24.994087 39.584,24.5034783 39.696,23.8996522 C42.3466667,22.993913 44.3626667,22.0881739 45.6693333,21.257913 C48.1706667,19.6351304 48.8426667,18.5406957 48.8426667,17.4085217 C48.8426667,16.616 48.2826667,15.748 47.5733333,15.181913 C47.2373333,14.6913043 46.9386667,14.5026087 46.3786667,14.1252174 C45.8186667,13.7478261 45.2213333,13.4836522 44.4746667,13.4836522 C42.048,13.4836522 38.6506667,15.6347826 36.7093333,18.2010435 C33.984,21.824 34.4693333,24.2393043 35.776,25.7866087 C37.3813333,27.7113043 38.5386667,28.2396522 39.9573333,28.2396522 C43.728,28.2396522 48.4693333,24.7676522 51.0453333,20.4276522 Z M44.624,19.786087 C43.616,20.5408696 42.0853333,21.3333913 40.4053333,22.0504348 C41.712,19.4464348 44.4746667,16.6537391 46.528,16.2008696 C46.9013333,17.5217391 46.0053333,18.7671304 44.624,19.786087 Z" id="Path" sketch:type="MSShapeGroup"></path>
            <path d="M28.5333333,28.0509565 C30.7733333,28.0509565 34.6186667,24.8053913 37.232,20.4276522 L37.344,20.2389565 C37.4933333,19.9747826 37.5306667,19.786087 37.2693333,19.521913 L37.1573333,19.4086957 C37.0453333,19.2954783 36.9706667,19.3332174 36.7093333,19.6728696 L36.5973333,19.8238261 C33.8346667,23.56 31.8186667,25.1450435 30.0266667,25.6356522 C30.288,23.8241739 33.1253333,20.0125217 33.984,17.9746087 C34.544,16.6914783 34.5066667,16.0121739 33.6106667,15.2196522 C33.0506667,14.6913043 32.4906667,14.4648696 31.9306667,14.4648696 C30.9226667,14.4648696 28.496,15.8989565 25.8453333,17.8236522 C28.608,13.144 30.512,10.238087 32.08,8.04921739 C34.3946667,4.80365217 34.5066667,2.84121739 33.648,2.27513043 C33.2,1.97321739 32.2666667,1.59582609 31.3333333,1.33165217 C30.9973333,1.21843478 30.848,1.21843478 30.4746667,1.74678261 C27.1893333,6.91704348 22.56,13.8610435 18.7146667,19.8238261 C16.848,22.7297391 16.0266667,24.1638261 16.0266667,25.1827826 C16.0266667,25.9753043 16.4746667,26.5036522 17.6693333,27.032 C18.6026667,27.4471304 19.312,27.6358261 19.7226667,27.6358261 C20.2826667,27.6358261 20.5813333,27.2206957 21.7386667,25.1073043 C22.112,24.3902609 22.5226667,23.7109565 22.896,23.0316522 C25.3226667,20.4276522 27.712,18.352 29.3546667,17.2198261 C28.3093333,19.22 26.4053333,21.4843478 25.472,23.5222609 C24.912,24.8431304 25.2106667,25.9753043 26.144,26.9187826 C26.9653333,27.7113043 27.5626667,28.0509565 28.5333333,28.0509565 L28.5333333,28.0509565 Z" id="Path" sketch:type="MSShapeGroup"></path>
            <path d="M0.832,29.1831304 C1.57866667,29.1831304 2.47466667,28.8434783 4.34133333,28.768 C5.23733333,28.768 5.872,28.5793043 6.768,27.4093913 C11.7706667,20.8050435 19.424,9.37008696 21.888,5.36973913 C25.248,4.8413913 28.048,4.42626087 29.4293333,4.23756522 C29.728,4.19982609 29.8773333,4.0866087 29.8773333,3.93565217 C29.8773333,3.67147826 29.5413333,3.44504348 28.6453333,2.84121739 C27.8986667,2.3506087 27.264,2.01095652 26.256,2.01095652 C25.024,2.01095652 23.3813333,2.08643478 21.5893333,2.19965217 C20.9173333,1.74678261 20.2453333,1.33165217 19.76,1.06747826 C19.088,0.727826087 18.9013333,0.765565217 18.528,1.33165217 C18.3413333,1.63356522 18.1173333,2.01095652 17.7813333,2.50156522 C14.9066667,2.76573913 12.1813333,3.06765217 10.8746667,3.29408696 C9.19466667,3.55826087 8.63466667,4.04886957 8,4.8413913 C7.58933333,5.36973913 7.328,6.27547826 6.84266667,7.36991304 C6.69333333,7.67182609 6.80533333,7.82278261 7.44,7.70956522 C9.82933333,7.29443478 12.5173333,6.84156522 15.168,6.42643478 C9.12,15.3706087 3.59466667,23.7109565 0.608,28.7302609 C0.384,29.1076522 0.608,29.1831304 0.832,29.1831304 L0.832,29.1831304 Z" id="Path" sketch:type="MSShapeGroup"></path>
        </g>
    </g>
</svg>