<?xml version="1.0" encoding="UTF-8" standalone="no"?>
<svg width="167px" height="25px" viewBox="0 0 167 25" version="1.1" xmlns="http://www.w3.org/2000/svg" xmlns:xlink="http://www.w3.org/1999/xlink" xmlns:sketch="http://www.bohemiancoding.com/sketch/ns">
    <!-- Generator: Sketch 3.3.2 (12043) - http://www.bohemiancoding.com/sketch -->
    <title>TheronStudios</title>
    <desc>Created with Sketch.</desc>
    <defs></defs>
    <g id="Logo" stroke="none" stroke-width="1" fill="none" fill-rule="evenodd" sketch:type="MSPage">
        <g id="TheronStudios" sketch:type="MSLayerGroup" fill="#FFFFFF">
            <path d="M0.312217391,24.0408222 C0.941492754,24.0408222 1.69662319,23.7622508 3.26981159,23.7003461 C4.02494203,23.7003461 4.55982609,23.5455841 5.31495652,22.5860603 C9.53110145,17.1693937 15.9811739,7.79082224 18.0577826,4.50986986 C20.8895217,4.07653653 23.2493043,3.73606034 24.4134638,3.58129843 C24.6651739,3.55034605 24.791029,3.45748891 24.791029,3.33367938 C24.791029,3.11701272 24.5078551,2.93129843 23.7527246,2.43606034 C23.1234493,2.03367938 22.5885652,1.75510796 21.7390435,1.75510796 C20.7007391,1.75510796 19.3163333,1.81701272 17.8060725,1.90986986 C17.2397246,1.53844129 16.6733768,1.1979651 16.2643478,0.981298433 C15.698,0.702727004 15.5406812,0.733679385 15.2260435,1.1979651 C15.0687246,1.44558415 14.879942,1.75510796 14.5967681,2.15748891 C12.174058,2.37415558 9.8772029,2.62177462 8.77597101,2.80748891 C7.36010145,3.02415558 6.88814493,3.42653653 6.35326087,4.07653653 C6.00715942,4.50986986 5.78691304,5.252727 5.37788406,6.15034605 C5.25202899,6.3979651 5.34642029,6.52177462 5.88130435,6.42891748 C7.89498551,6.08844129 10.1603768,5.71701272 12.3943043,5.37653653 C7.29717391,12.7122508 2.64053623,19.552727 0.123434783,23.6693937 C-0.0653478261,23.9789175 0.123434783,24.0408222 0.312217391,24.0408222 L0.312217391,24.0408222 Z" id="Theron-Studios-Copy-7" sketch:type="MSShapeGroup"></path>
            <path d="M23.6583333,23.1122508 C25.5461594,23.1122508 28.7869275,20.4503461 30.9893913,16.8598699 L31.0837826,16.705108 C31.2096377,16.4884413 31.2411014,16.3336794 31.0208551,16.1170127 L30.9264638,16.0241556 C30.8320725,15.9312984 30.7691449,15.9622508 30.5488986,16.2408222 L30.4545072,16.3646318 C28.1261884,19.4289175 26.4271449,20.7289175 24.9168841,21.1312984 C25.1371304,19.6455841 27.5283768,16.5193937 28.2520435,14.8479651 C28.724,13.7955841 28.6925362,13.2384413 27.9374058,12.5884413 C27.4654493,12.155108 26.9934928,11.9693937 26.5215362,11.9693937 C25.6720145,11.9693937 23.6268696,13.1455841 21.392942,14.7241556 C23.7212609,10.8860603 25.325913,8.502727 26.6473913,6.70748891 C28.5981449,4.04558415 28.6925362,2.43606034 27.9688696,1.97177462 C27.5913043,1.72415558 26.8047101,1.41463177 26.0181159,1.1979651 C25.734942,1.10510796 25.609087,1.10510796 25.2944493,1.53844129 C22.5256377,5.77891748 18.6241304,11.4741556 15.3833623,16.3646318 C13.8101739,18.7479651 13.117971,19.9241556 13.117971,20.7598699 C13.117971,21.4098699 13.4955362,21.8432032 14.5023768,22.2765365 C15.288971,22.6170127 15.8867826,22.7717746 16.2328841,22.7717746 C16.7048406,22.7717746 16.9565507,22.4312984 17.9319275,20.6979651 C18.2465652,20.1098699 18.5926667,19.552727 18.9073043,18.9955841 C20.9524493,16.8598699 22.9661304,15.1574889 24.3505362,14.2289175 C23.4695507,15.8693937 21.8648986,17.7265365 21.0783043,19.3979651 C20.6063478,20.4812984 20.858058,21.4098699 21.6446522,22.1836794 C22.3368551,22.8336794 22.8402754,23.1122508 23.6583333,23.1122508 L23.6583333,23.1122508 Z" id="Path" sketch:type="MSShapeGroup"></path>
            <path d="M33.2862464,23.2670127 C36.464087,23.2670127 40.4599855,20.4193937 42.6309855,16.8598699 L42.7253768,16.705108 C42.8512319,16.4884413 42.8826957,16.3336794 42.6624493,16.1170127 L42.568058,16.0241556 C42.4736667,15.9312984 42.4107391,15.9622508 42.1904928,16.2408222 L42.0961014,16.3646318 C39.8936377,19.2432032 36.464087,21.1312984 34.1043043,21.1312984 C33.6952754,21.1312984 33.3491739,21.0693937 33.066,20.9146318 C32.9401449,20.605108 32.9716087,20.202727 33.066,19.7074889 C35.2999275,18.9646318 36.998971,18.2217746 38.1002029,17.5408222 C40.2082754,16.2098699 40.7746232,15.3122508 40.7746232,14.3836794 C40.7746232,13.7336794 40.3026667,13.0217746 39.7048551,12.5574889 C39.4216812,12.155108 39.169971,12.0003461 38.6980145,11.6908222 C38.226058,11.3812984 37.7226377,11.1646318 37.0933623,11.1646318 C35.0482174,11.1646318 32.1850145,12.9289175 30.5488986,15.0336794 C28.2520435,18.005108 28.6610725,19.9860603 29.7623043,21.255108 C31.1152464,22.8336794 32.0906232,23.2670127 33.2862464,23.2670127 Z M37.2192174,16.3336794 C36.3696957,16.952727 35.0796812,17.602727 33.6638116,18.1908222 C34.7650435,16.055108 37.0933623,13.7646318 38.8238696,13.3932032 C39.1385072,14.4765365 38.3833768,15.4979651 37.2192174,16.3336794 Z" id="Path" sketch:type="MSShapeGroup"></path>
            <path d="M43.0400145,22.6479651 C43.3861159,22.6479651 43.6692899,22.4003461 44.9278406,20.5432032 C47.9483623,16.0241556 51.7240145,12.4646318 54.9018551,10.5146318 C54.9962464,10.452727 55.0591739,10.3908222 55.0591739,10.3289175 C55.0591739,10.2670127 54.8703913,10.1432032 54.776,10.0503461 C54.5557536,9.86463177 54.4928261,9.70986986 54.2411159,9.70986986 C53.9894058,9.70986986 53.548913,9.86463177 52.8567101,10.205108 C51.4408406,10.855108 49.8361884,11.9384413 48.0427536,13.5479651 C48.1686087,13.1146318 48.2315362,12.7122508 48.2315362,12.3717746 C48.2315362,11.9384413 48.1056812,11.5670127 47.7281159,11.3503461 C47.2876232,11.102727 46.910058,11.0717746 46.3751739,10.8860603 C46.1863913,10.8241556 45.9346812,10.8241556 45.8402899,11.0408222 C45.3683333,11.9384413 43.3231884,14.7860603 42.0961014,16.3646318 C40.522913,18.3765365 39.9251014,19.8312984 39.9251014,20.7289175 C39.9251014,21.7503461 40.7431594,22.0289175 41.6870725,22.2765365 C42.568058,22.5241556 42.8197681,22.6479651 43.0400145,22.6479651 L43.0400145,22.6479651 Z" id="Path" sketch:type="MSShapeGroup"></path>
            <path d="M54.9962464,22.9884413 C57.4189565,22.9884413 59.7158116,21.2860603 61.2260725,18.7170127 C61.5721739,18.1289175 61.8868116,17.4789175 62.107058,16.8289175 C64.6241594,16.6122508 66.7007681,15.002727 67.802,13.6408222 L67.9278551,13.4860603 C68.0851739,13.3003461 68.0851739,13.1455841 67.9593188,12.9598699 L67.8963913,12.8670127 C67.802,12.7432032 67.7076087,12.7122508 67.4558986,12.9598699 L67.3300435,13.0836794 C65.9771014,14.4146318 64.5297681,15.3741556 62.4531594,15.5289175 C62.4846232,15.2812984 62.516087,15.0336794 62.516087,14.7860603 C62.516087,13.6717746 62.107058,12.7432032 61.2575362,12.402727 C60.8485072,11.7836794 59.6214203,11.1646318 58.5831159,11.1646318 C56.4435797,11.1646318 53.7691594,13.2074889 52.195971,15.2812984 C50.2452174,17.8193937 50.5283913,20.1098699 51.9127971,21.5955841 C52.7623188,22.4622508 53.6433043,22.9884413 54.9962464,22.9884413 Z M55.8772319,17.7884413 C56.6638261,16.5503461 57.5762754,15.4979651 58.4572609,14.6932032 C58.4572609,15.5289175 58.9921449,16.3955841 60.3136232,16.705108 C59.118,18.5312984 57.0413913,20.2646318 54.9333188,20.7908222 C54.776,19.8932032 55.185029,18.8408222 55.8772319,17.7884413 Z M59.8102029,13.9503461 C59.8102029,13.8265365 59.8416667,13.7336794 59.8416667,13.6717746 C60.1877681,13.455108 60.5024058,13.3312984 60.7855797,13.2384413 C61.0687536,13.3312984 61.2260725,13.6717746 61.2260725,14.105108 C61.2260725,14.5074889 61.1316812,14.9408222 60.9743623,15.405108 C60.1248406,15.1574889 59.8102029,14.6003461 59.8102029,13.9503461 Z" id="Path" sketch:type="MSShapeGroup"></path>
            <path d="M72.8676667,23.1122508 C74.3779275,23.1122508 76.7377101,21.7503461 78.247971,20.4812984 C78.5626087,20.202727 78.6255362,19.7693937 78.6255362,19.3979651 C78.6255362,19.1812984 78.5311449,19.0884413 78.3423623,19.2122508 C76.5803913,20.4193937 75.1959855,20.852727 74.5981739,20.852727 C74.4723188,20.852727 74.3779275,20.8217746 74.2835362,20.7908222 C75.2903768,18.7479651 76.7691739,16.952727 77.5243043,15.3741556 C78.1850435,13.9812984 78.0591884,13.1765365 77.429913,12.7432032 C76.7062464,12.2170127 76.1713623,11.9693937 75.7937971,11.9693937 C75.4476957,11.9693937 75.0072029,12.1241556 74.3464638,12.5265365 C73.6227971,12.9598699 72.6159565,13.7646318 71.3888696,14.8789175 C71.7978986,14.0122508 72.0181449,13.4241556 72.0181449,13.0836794 C72.0181449,12.5265365 71.7978986,12.3408222 70.9483768,11.752727 C70.4134928,11.3812984 69.7842174,11.102727 69.4381159,11.102727 C68.8088406,11.102727 68.1166377,11.9693937 64.7500145,16.3646318 C63.1453623,18.4693937 62.4216957,19.9241556 62.4216957,20.8836794 C62.4216957,21.5336794 62.8621884,21.9979651 63.4914638,22.152727 C64.2465942,22.3384413 64.9702609,22.5860603 65.3792899,22.5860603 C65.6939275,22.5860603 66.0714928,22.3074889 66.6693043,21.502727 C69.2807971,17.9122508 71.4832609,15.9932032 73.1193768,15.0336794 C72.6788841,16.1789175 71.3574058,17.6336794 70.382029,19.8003461 C70.0988551,20.4812984 70.0988551,21.2241556 70.5393478,21.905108 C70.916913,22.4932032 71.8608261,23.1122508 72.8676667,23.1122508 L72.8676667,23.1122508 Z" id="Path" sketch:type="MSShapeGroup"></path>
            <path d="M92.2178841,13.9193937 C93.2876522,14.6622508 93.7596087,15.1884413 93.7596087,16.055108 C93.7596087,18.0360603 90.0783478,20.1098699 83.5024203,21.1622508 C82.9360725,21.255108 82.9046087,22.0598699 84.226087,23.3598699 C85.0441449,24.1646318 85.7678116,24.6289175 86.8690435,24.6289175 C88.2534493,24.6289175 90.864942,23.9479651 93.5078986,22.3074889 C95.4901159,21.0693937 96.8115942,19.4908222 96.8115942,17.7884413 C96.8115942,15.7146318 95.1754783,14.3836794 93.4764348,13.1765365 C92.4695942,12.4646318 91.9347101,11.9693937 91.9347101,11.2884413 C91.9347101,10.2360603 93.0044783,8.87415558 97.0003768,6.98606034 C99.3286957,5.902727 102.254826,4.81939367 105.527058,3.952727 C105.841696,3.85986986 105.841696,3.36463177 105.086565,2.40510796 C104.237043,1.29082224 103.513377,0.826536528 102.28629,0.826536528 C100.492855,0.826536528 96.6228116,2.15748891 93.4764348,4.13844129 C90.7705507,5.84082224 89.0085797,7.60510796 89.0085797,10.0503461 C89.0085797,11.8146318 90.4873768,12.7122508 92.2178841,13.9193937 L92.2178841,13.9193937 Z" id="Path" sketch:type="MSShapeGroup"></path>
            <path d="M101.499696,22.9884413 C104.331435,22.9884413 108.390261,18.655108 109.491493,16.8598699 L109.585884,16.705108 C109.711739,16.4884413 109.743203,16.3336794 109.522957,16.1170127 L109.428565,16.0241556 C109.334174,15.9312984 109.271246,15.9622508 109.051,16.2408222 L108.956609,16.3646318 C106.659754,19.3979651 104.677536,20.605108 102.223362,20.7598699 C102.443609,19.6455841 103.796551,17.4789175 107.289029,12.2170127 L108.925145,11.8455841 C110.089304,11.5670127 110.120768,11.3812984 110.498333,11.3193937 C110.875899,11.2574889 111.159072,10.9479651 111.159072,10.6074889 C111.159072,10.4836794 111.127609,10.3908222 110.812971,10.3908222 C110.183696,10.3908222 109.365638,10.4217746 108.453188,10.452727 C110.403942,7.48129843 110.687116,6.76939367 109.365638,5.68606034 C108.79929,5.19082224 108.641971,4.69558415 108.201478,4.69558415 C107.949768,4.69558415 107.572203,4.94320319 106.62829,6.18129843 C105.432667,7.72891748 104.362899,9.21463177 103.198739,10.8860603 C102.349217,10.9789175 101.499696,11.102727 100.744565,11.1955841 C100.241145,11.2574889 100.146754,11.3503461 100.146754,11.4741556 C100.146754,11.7217746 100.492855,12.3408222 100.901884,12.7122508 C101.153594,12.9289175 101.310913,13.0217746 101.719942,13.0217746 C101.059203,14.0432032 100.335536,15.1265365 99.5174783,16.3646318 C97.5037971,19.3979651 97.6611159,20.6979651 99.014058,21.9360603 C99.8950435,22.7717746 100.807493,22.9884413 101.499696,22.9884413 L101.499696,22.9884413 Z" id="Path" sketch:type="MSShapeGroup"></path>
            <path d="M116.287667,21.6884413 C116.791087,22.0289175 117.357435,22.3074889 117.955246,22.3074889 C120.472348,22.3074889 123.49287,18.655108 124.594101,16.8598699 L124.688493,16.705108 C124.814348,16.5193937 124.845812,16.3336794 124.625565,16.1170127 L124.531174,16.0241556 C124.436783,15.9312984 124.373855,15.9622508 124.153609,16.2408222 L124.059217,16.3646318 C121.82529,19.305108 120.315029,20.2336794 119.15087,20.3574889 C119.371116,18.5622508 121.384797,15.6217746 121.982609,14.4455841 C122.58042,13.3003461 122.297246,12.805108 120.944304,12.6193937 C120.315029,12.5265365 119.276725,12.4336794 118.899159,12.4336794 C118.647449,12.4336794 118.49013,12.5574889 118.301348,12.9289175 C115.564,18.1598699 113.14129,19.8932032 111.819812,20.1408222 C112.543478,18.5622508 113.89642,17.2622508 115.689855,14.2908222 C116.382058,13.1455841 116.633768,11.9384413 115.438145,11.5360603 C114.777406,11.3193937 113.581783,11.1646318 113.14129,11.1646318 C112.732261,11.1646318 112.543478,11.3503461 112.323232,11.752727 C112.102986,12.1860603 110.97029,13.7336794 108.956609,16.3646318 C107.729522,17.9741556 107.163174,19.1812984 107.163174,20.1408222 C107.163174,20.9146318 107.446348,21.5336794 108.390261,22.1836794 C109.145391,22.6789175 109.743203,22.9265365 110.372478,22.9265365 C111.72542,22.9265365 113.487391,21.5336794 115.280826,19.305108 C115.06058,20.2336794 115.280826,21.0074889 116.287667,21.6884413 L116.287667,21.6884413 Z" id="Path" sketch:type="MSShapeGroup"></path>
            <path d="M132.113942,22.5241556 C135.071536,22.5241556 138.406696,18.7479651 139.539391,16.8598699 L139.633783,16.705108 C139.759638,16.5193937 139.791101,16.3336794 139.570855,16.1170127 L139.476464,16.0241556 C139.382072,15.9312984 139.319145,15.9622508 139.098899,16.2408222 L139.004507,16.3646318 C137.274,18.6241556 135.795203,19.8003461 134.536652,20.2955841 C134.568116,18.4074889 135.826667,15.9622508 138.438159,11.752727 C140.011348,9.21463177 141.804783,6.52177462 143.03187,4.72653653 C143.849928,3.48844129 143.787,2.4979651 143.220652,1.97177462 C142.685768,1.47653653 142.025029,0.88844129 141.553072,0.547965099 C141.332826,0.393203195 141.11258,0.424155575 140.892333,0.702727004 C138.910116,3.302727 135.386174,8.56463177 133.089319,12.155108 C132.491507,11.505108 131.736377,11.0717746 131.107101,11.0717746 C129.250739,11.0717746 125.821188,12.8360603 123.49287,15.8693937 C122.548957,17.0765365 122.171391,18.1908222 122.171391,19.1193937 C122.171391,20.3265365 122.895058,21.2241556 123.524333,21.6884413 C124.216536,22.5241556 124.845812,22.8955841 125.506551,22.8955841 C126.796565,22.8955841 128.464145,21.6265365 130.068797,19.7693937 C130.037333,20.2336794 130.068797,20.6670127 130.194652,20.9455841 C130.540754,21.8122508 131.201493,22.5241556 132.113942,22.5241556 Z M125.884116,20.6670127 C125.758261,18.3765365 128.747319,14.8479651 132.17687,13.5789175 C131.453203,14.8479651 130.918319,16.055108 130.572217,17.1693937 C129.124884,18.8098699 127.488768,20.0789175 125.884116,20.6670127 Z" id="Path" sketch:type="MSShapeGroup"></path>
            <path d="M145.20287,8.84320319 C145.423116,8.9979651 146.083855,9.18367938 146.524348,9.18367938 C146.996304,9.18367938 147.436797,9.12177462 147.940217,8.56463177 C148.317783,8.19320319 149.230232,7.35748891 150.04829,6.552727 C150.3,6.30510796 150.142681,6.11939367 149.828043,5.87177462 C149.481942,5.56225081 148.695348,5.15986986 148.034609,4.97415558 C147.782899,4.91225081 147.499725,5.0979651 147.027768,5.62415558 C146.398493,6.30510796 145.674826,7.29558415 145.20287,8.28606034 C145.077014,8.56463177 145.077014,8.75034605 145.20287,8.84320319 L145.20287,8.84320319 Z" id="Path" sketch:type="MSShapeGroup"></path>
            <path d="M140.357449,22.9574889 C142.717232,22.9574889 146.304101,19.1812984 147.719971,16.8598699 L147.814362,16.705108 C147.940217,16.4884413 147.971681,16.3336794 147.751435,16.1170127 L147.657043,16.0241556 C147.562652,15.9312984 147.499725,15.9622508 147.279478,16.2408222 L147.185087,16.3646318 C144.447739,19.955108 142.465522,20.852727 140.986725,20.9765365 C141.36429,19.8622508 142.402594,18.2217746 144.133101,15.8074889 C145.234333,14.2908222 145.863609,13.2074889 145.863609,12.5884413 C145.863609,11.4122508 143.881391,11.2574889 143.094797,11.2574889 C142.843087,11.2574889 142.717232,11.3193937 142.591377,11.4741556 C141.899174,12.2479651 140.325986,14.3836794 139.004507,16.3646318 C136.644725,19.955108 136.707652,20.6670127 138.123522,21.9360603 C139.004507,22.6479651 139.445,22.9574889 140.357449,22.9574889 L140.357449,22.9574889 Z" id="Path" sketch:type="MSShapeGroup"></path>
            <path d="M149.859507,22.9884413 C152.282217,22.9884413 154.579072,21.2860603 156.089333,18.7170127 C156.435435,18.1289175 156.750072,17.4789175 156.970319,16.8289175 C159.48742,16.6122508 161.564029,15.002727 162.665261,13.6408222 L162.791116,13.4860603 C162.948435,13.3003461 162.948435,13.1455841 162.82258,12.9598699 L162.759652,12.8670127 C162.665261,12.7432032 162.57087,12.7122508 162.319159,12.9598699 L162.193304,13.0836794 C160.840362,14.4146318 159.393029,15.3741556 157.31642,15.5289175 C157.347884,15.2812984 157.379348,15.0336794 157.379348,14.7860603 C157.379348,13.6717746 156.970319,12.7432032 156.120797,12.402727 C155.711768,11.7836794 154.484681,11.1646318 153.446377,11.1646318 C151.306841,11.1646318 148.63242,13.2074889 147.059232,15.2812984 C145.108478,17.8193937 145.391652,20.1098699 146.776058,21.5955841 C147.62558,22.4622508 148.506565,22.9884413 149.859507,22.9884413 Z M150.740493,17.7884413 C151.527087,16.5503461 152.439536,15.4979651 153.320522,14.6932032 C153.320522,15.5289175 153.855406,16.3955841 155.176884,16.705108 C153.981261,18.5312984 151.904652,20.2646318 149.79658,20.7908222 C149.639261,19.8932032 150.04829,18.8408222 150.740493,17.7884413 Z M154.673464,13.9503461 C154.673464,13.8265365 154.704928,13.7336794 154.704928,13.6717746 C155.051029,13.455108 155.365667,13.3312984 155.648841,13.2384413 C155.932014,13.3312984 156.089333,13.6717746 156.089333,14.105108 C156.089333,14.5074889 155.994942,14.9408222 155.837623,15.405108 C154.988101,15.1574889 154.673464,14.6003461 154.673464,13.9503461 Z" id="Path" sketch:type="MSShapeGroup"></path>
            <path d="M163.892348,20.4503461 C163.892348,18.3765365 162.004522,17.602727 162.004522,16.5812984 C162.004522,15.9622508 162.633797,15.6836794 163.797957,15.2812984 C165.874565,14.5693937 166.849942,13.8884413 166.849942,12.805108 C166.849942,12.402727 166.661159,11.6908222 165.968957,10.8241556 C165.497,10.2360603 165.150899,10.1432032 164.962116,10.2979651 C162.885507,11.5979651 159.455957,11.9693937 159.455957,14.8479651 C159.455957,16.705108 161.280855,17.1693937 161.280855,18.2836794 C161.280855,19.8312984 158.543507,21.6265365 156.718609,22.2146318 C156.403971,22.3074889 156.529826,22.7717746 157.096174,23.2670127 C157.788377,23.855108 158.574971,24.2265365 159.644739,24.2265365 C160.683043,24.2265365 161.501101,23.855108 162.193304,23.3598699 C163.357464,22.4932032 163.892348,21.4717746 163.892348,20.4503461 L163.892348,20.4503461 Z" id="Path" sketch:type="MSShapeGroup"></path>
        </g>
    </g>
</svg>