<?xml version="1.0" encoding="utf-8"?>
<!-- Generator: Adobe Illustrator 15.1.0, SVG Export Plug-In . SVG Version: 6.00 Build 0)  -->
<!DOCTYPE svg PUBLIC "-//W3C//DTD SVG 1.1//EN" "http://www.w3.org/Graphics/SVG/1.1/DTD/svg11.dtd">
<svg version="1.1" id="THERON" xmlns="http://www.w3.org/2000/svg" xmlns:xlink="http://www.w3.org/1999/xlink" x="0px" y="0px"
	 width="132px" height="22px" viewBox="0 0 132 22" enable-background="new 0 0 132 22" xml:space="preserve">
<path id="N" fill="#FFFFFF" d="M112,0h5.598L127,11.334V0h5v22h-4.79L118,9.66V22h-6V0z"/>
<path id="O" fill="#F1412F" d="M103.533,0H90.6L84,11l6.6,11h12.936L110,11L103.533,0z M97,17c-3.312,0-6-2.688-6-6
	c0-3.313,2.688-6,6-6s6,2.687,6,6C103,14.312,100.312,17,97,17z"/>
<path id="R" fill="#FFFFFF" d="M64,0h10.199c3.316,0,5.516,0.799,6.975,2.287C82.443,3.527,83,5.133,83,7.272v0.062
	c0,3.317-1.672,5.734-4.369,6.882L83.904,22h-6.945l-4.372-7h-0.062H70v7h-6V0z M73.92,10C75.967,10,77,9.288,77,7.707V7.644
	C77,5.939,75.904,5,73.889,5H70v5H73.92z"/>
<path id="E" fill="#FFFFFF" d="M43,0h18v5H49v3h11v5H49v3h12v6H43V0z"/>
<path id="H" fill="#FFFFFF" d="M21,0h6v8h7V0h6v22h-6v-9h-7v9h-6V0z"/>
<path id="T" fill="#FFFFFF" d="M7,5H0V0h19v5h-6v17H7V5z"/>
</svg>
